<?xml version="1.0" standalone="no"?>
 <!DOCTYPE svg PUBLIC "-//W3C//DTD SVG 1.1//EN" 
 "http://www.w3.org/Graphics/SVG/1.1/DTD/svg11.dtd"> 
<svg
  xmlns:svg="http://www.w3.org/2000/svg"
  xmlns="http://www.w3.org/2000/svg"
  xmlns:xlink="http://www.w3.org/1999/xlink"
  version="1.1"
  width="297.0022mm" height="210.0072mm" viewBox="0.0000 0.0000 297.0022 210.0072">
<title>SVG Image created as miniorgan-passive filter.svg date 2025/02/13 15:39:40 </title>
  <desc>Image generated by Eeschema-SVG </desc>
<g style="fill:#000000; fill-opacity:1.0000;stroke:#000000; stroke-opacity:1.0000;
stroke-linecap:round; stroke-linejoin:round;"
 transform="translate(0 0) scale(1 1)">
<path style="fill:none; 
stroke:#000000; stroke-width:0.3302; stroke-opacity:1; 
stroke-linecap:round; stroke-linejoin:round;fill:none"
d="M 75.9460,77.9780
78.9940,77.9780
" /> 
<path style="fill:none; 
stroke:#000000; stroke-width:0.3048; stroke-opacity:1; 
stroke-linecap:round; stroke-linejoin:round;fill:none"
d="M 75.9460,76.9620
78.9940,76.9620
" /> 
</g>
<g style="fill:none; 
stroke:#000000; stroke-width:0.1524; stroke-opacity:1; 
stroke-linecap:round; stroke-linejoin:round;">
<path d="M77.4700 76.9620
L77.4700 74.9300
" />
<path d="M77.4700 77.9780
L77.4700 80.0100
" />
<text x="81.9657" y="76.8412"
textLength="3.8922" font-size="1.6933" lengthAdjust="spacingAndGlyphs"
text-anchor="middle" opacity="0" stroke-opacity="0">C49</text>
<g class="stroked-text"><desc>C49</desc>
<path d="M81.1492 76.6648
L81.0888 76.7253
" />
<path d="M81.0888 76.7253
L80.9073 76.7857
" />
<path d="M80.9073 76.7857
L80.7864 76.7857
" />
<path d="M80.7864 76.7857
L80.6050 76.7253
" />
<path d="M80.6050 76.7253
L80.4840 76.6043
" />
<path d="M80.4840 76.6043
L80.4235 76.4833
" />
<path d="M80.4235 76.4833
L80.3631 76.2414
" />
<path d="M80.3631 76.2414
L80.3631 76.0600
" />
<path d="M80.3631 76.0600
L80.4235 75.8181
" />
<path d="M80.4235 75.8181
L80.4840 75.6972
" />
<path d="M80.4840 75.6972
L80.6050 75.5762
" />
<path d="M80.6050 75.5762
L80.7864 75.5157
" />
<path d="M80.7864 75.5157
L80.9073 75.5157
" />
<path d="M80.9073 75.5157
L81.0888 75.5762
" />
<path d="M81.0888 75.5762
L81.1492 75.6367
" />
<path d="M82.2378 75.9391
L82.2378 76.7857
" />
<path d="M81.9354 75.4553
L81.6331 76.3624
" />
<path d="M81.6331 76.3624
L82.4192 76.3624
" />
<path d="M82.9635 76.7857
L83.2054 76.7857
" />
<path d="M83.2054 76.7857
L83.3264 76.7253
" />
<path d="M83.3264 76.7253
L83.3868 76.6648
" />
<path d="M83.3868 76.6648
L83.5078 76.4833
" />
<path d="M83.5078 76.4833
L83.5683 76.2414
" />
<path d="M83.5683 76.2414
L83.5683 75.7576
" />
<path d="M83.5683 75.7576
L83.5078 75.6367
" />
<path d="M83.5078 75.6367
L83.4473 75.5762
" />
<path d="M83.4473 75.5762
L83.3264 75.5157
" />
<path d="M83.3264 75.5157
L83.0845 75.5157
" />
<path d="M83.0845 75.5157
L82.9635 75.5762
" />
<path d="M82.9635 75.5762
L82.9030 75.6367
" />
<path d="M82.9030 75.6367
L82.8426 75.7576
" />
<path d="M82.8426 75.7576
L82.8426 76.0600
" />
<path d="M82.8426 76.0600
L82.9030 76.1810
" />
<path d="M82.9030 76.1810
L82.9635 76.2414
" />
<path d="M82.9635 76.2414
L83.0845 76.3019
" />
<path d="M83.0845 76.3019
L83.3264 76.3019
" />
<path d="M83.3264 76.3019
L83.4473 76.2414
" />
<path d="M83.4473 76.2414
L83.5078 76.1810
" />
<path d="M83.5078 76.1810
L83.5683 76.0600
" />
</g><text x="85.0499" y="79.3812"
textLength="10.0607" font-size="1.6933" lengthAdjust="spacingAndGlyphs"
text-anchor="middle" opacity="0" stroke-opacity="0">10-100nF</text>
<g class="stroked-text"><desc>10-100nF</desc>
<path d="M81.0888 79.3257
L80.3631 79.3257
" />
<path d="M80.7259 79.3257
L80.7259 78.0557
" />
<path d="M80.7259 78.0557
L80.6050 78.2372
" />
<path d="M80.6050 78.2372
L80.4840 78.3581
" />
<path d="M80.4840 78.3581
L80.3631 78.4186
" />
<path d="M81.8749 78.0557
L81.9959 78.0557
" />
<path d="M81.9959 78.0557
L82.1168 78.1162
" />
<path d="M82.1168 78.1162
L82.1773 78.1767
" />
<path d="M82.1773 78.1767
L82.2378 78.2976
" />
<path d="M82.2378 78.2976
L82.2983 78.5395
" />
<path d="M82.2983 78.5395
L82.2983 78.8419
" />
<path d="M82.2983 78.8419
L82.2378 79.0838
" />
<path d="M82.2378 79.0838
L82.1773 79.2048
" />
<path d="M82.1773 79.2048
L82.1168 79.2653
" />
<path d="M82.1168 79.2653
L81.9959 79.3257
" />
<path d="M81.9959 79.3257
L81.8749 79.3257
" />
<path d="M81.8749 79.3257
L81.7540 79.2653
" />
<path d="M81.7540 79.2653
L81.6935 79.2048
" />
<path d="M81.6935 79.2048
L81.6330 79.0838
" />
<path d="M81.6330 79.0838
L81.5726 78.8419
" />
<path d="M81.5726 78.8419
L81.5726 78.5395
" />
<path d="M81.5726 78.5395
L81.6330 78.2976
" />
<path d="M81.6330 78.2976
L81.6935 78.1767
" />
<path d="M81.6935 78.1767
L81.7540 78.1162
" />
<path d="M81.7540 78.1162
L81.8749 78.0557
" />
<path d="M82.8425 78.8419
L83.8102 78.8419
" />
<path d="M85.0802 79.3257
L84.3545 79.3257
" />
<path d="M84.7173 79.3257
L84.7173 78.0557
" />
<path d="M84.7173 78.0557
L84.5964 78.2372
" />
<path d="M84.5964 78.2372
L84.4754 78.3581
" />
<path d="M84.4754 78.3581
L84.3545 78.4186
" />
<path d="M85.8663 78.0557
L85.9873 78.0557
" />
<path d="M85.9873 78.0557
L86.1082 78.1162
" />
<path d="M86.1082 78.1162
L86.1687 78.1767
" />
<path d="M86.1687 78.1767
L86.2292 78.2976
" />
<path d="M86.2292 78.2976
L86.2897 78.5395
" />
<path d="M86.2897 78.5395
L86.2897 78.8419
" />
<path d="M86.2897 78.8419
L86.2292 79.0838
" />
<path d="M86.2292 79.0838
L86.1687 79.2048
" />
<path d="M86.1687 79.2048
L86.1082 79.2653
" />
<path d="M86.1082 79.2653
L85.9873 79.3257
" />
<path d="M85.9873 79.3257
L85.8663 79.3257
" />
<path d="M85.8663 79.3257
L85.7454 79.2653
" />
<path d="M85.7454 79.2653
L85.6849 79.2048
" />
<path d="M85.6849 79.2048
L85.6244 79.0838
" />
<path d="M85.6244 79.0838
L85.5640 78.8419
" />
<path d="M85.5640 78.8419
L85.5640 78.5395
" />
<path d="M85.5640 78.5395
L85.6244 78.2976
" />
<path d="M85.6244 78.2976
L85.6849 78.1767
" />
<path d="M85.6849 78.1767
L85.7454 78.1162
" />
<path d="M85.7454 78.1162
L85.8663 78.0557
" />
<path d="M87.0758 78.0557
L87.1968 78.0557
" />
<path d="M87.1968 78.0557
L87.3177 78.1162
" />
<path d="M87.3177 78.1162
L87.3782 78.1767
" />
<path d="M87.3782 78.1767
L87.4387 78.2976
" />
<path d="M87.4387 78.2976
L87.4992 78.5395
" />
<path d="M87.4992 78.5395
L87.4992 78.8419
" />
<path d="M87.4992 78.8419
L87.4387 79.0838
" />
<path d="M87.4387 79.0838
L87.3782 79.2048
" />
<path d="M87.3782 79.2048
L87.3177 79.2653
" />
<path d="M87.3177 79.2653
L87.1968 79.3257
" />
<path d="M87.1968 79.3257
L87.0758 79.3257
" />
<path d="M87.0758 79.3257
L86.9549 79.2653
" />
<path d="M86.9549 79.2653
L86.8944 79.2048
" />
<path d="M86.8944 79.2048
L86.8339 79.0838
" />
<path d="M86.8339 79.0838
L86.7735 78.8419
" />
<path d="M86.7735 78.8419
L86.7735 78.5395
" />
<path d="M86.7735 78.5395
L86.8339 78.2976
" />
<path d="M86.8339 78.2976
L86.8944 78.1767
" />
<path d="M86.8944 78.1767
L86.9549 78.1162
" />
<path d="M86.9549 78.1162
L87.0758 78.0557
" />
<path d="M88.0434 78.4791
L88.0434 79.3257
" />
<path d="M88.0434 78.6000
L88.1039 78.5395
" />
<path d="M88.1039 78.5395
L88.2249 78.4791
" />
<path d="M88.2249 78.4791
L88.4063 78.4791
" />
<path d="M88.4063 78.4791
L88.5272 78.5395
" />
<path d="M88.5272 78.5395
L88.5877 78.6605
" />
<path d="M88.5877 78.6605
L88.5877 79.3257
" />
<path d="M89.6158 78.6605
L89.1924 78.6605
" />
<path d="M89.1924 79.3257
L89.1924 78.0557
" />
<path d="M89.1924 78.0557
L89.7972 78.0557
" />
</g><path style="fill:none; 
stroke:#000000; stroke-width:0.1524; stroke-opacity:1; 
stroke-linecap:round; stroke-linejoin:round;fill:none"
d="M 95.2500,55.8800
95.2500,56.8960
" /> 
<path style="fill:#000000; fill-opacity:1.0000; 
stroke:#000000; stroke-width:0.1524; stroke-opacity:1; 
stroke-linecap:round; stroke-linejoin:round;fill-rule:evenodd;"
d="M 95.2500,57.2770
94.7420,56.1340
95.7580,56.1340
Z" /> 
</g>
<g style="fill:none; 
stroke:#000000; stroke-width:0.2540; stroke-opacity:1; 
stroke-linecap:round; stroke-linejoin:round;">
<rect x="92.710000" y="57.404000" width="5.080000" height="2.032000" rx="0.000000" />
</g>
<g style="fill:none; 
stroke:#000000; stroke-width:0.1524; stroke-opacity:1; 
stroke-linecap:round; stroke-linejoin:round;">
<path d="M92.7100 58.4200
L91.4400 58.4200
" />
<text x="92.0750" y="58.1660"
textLength="1.4127" font-size="1.6933" lengthAdjust="spacingAndGlyphs"
text-anchor="middle" opacity="0" stroke-opacity="0">1</text>
<g class="stroked-text"><desc>1</desc>
<path d="M92.4379 58.0025
L91.7122 58.0025
" />
<path d="M92.0750 58.0025
L92.0750 56.7325
" />
<path d="M92.0750 56.7325
L91.9541 56.9140
" />
<path d="M91.9541 56.9140
L91.8331 57.0349
" />
<path d="M91.8331 57.0349
L91.7122 57.0954
" />
</g><path d="M95.2500 55.8800
L95.2500 54.6100
" />
<g transform="rotate(-90.000000 94.9960 55.2450)">
<text x="94.9960" y="55.2450"
textLength="1.4127" font-size="1.6933" lengthAdjust="spacingAndGlyphs"
text-anchor="middle" opacity="0" stroke-opacity="0">2</text>
</g>
<g class="stroked-text"><desc>2</desc>
<path d="M93.6835 55.6077
L93.6230 55.5473
" />
<path d="M93.6230 55.5473
L93.5625 55.4263
" />
<path d="M93.5625 55.4263
L93.5625 55.1239
" />
<path d="M93.5625 55.1239
L93.6230 55.0030
" />
<path d="M93.6230 55.0030
L93.6835 54.9425
" />
<path d="M93.6835 54.9425
L93.8044 54.8820
" />
<path d="M93.8044 54.8820
L93.9254 54.8820
" />
<path d="M93.9254 54.8820
L94.1068 54.9425
" />
<path d="M94.1068 54.9425
L94.8325 55.6682
" />
<path d="M94.8325 55.6682
L94.8325 54.8820
" />
</g><path d="M97.7900 58.4200
L99.0600 58.4200
" />
<text x="98.4250" y="58.1660"
textLength="1.4127" font-size="1.6933" lengthAdjust="spacingAndGlyphs"
text-anchor="middle" opacity="0" stroke-opacity="0">3</text>
<g class="stroked-text"><desc>3</desc>
<path d="M98.0017 56.7325
L98.7879 56.7325
" />
<path d="M98.7879 56.7325
L98.3645 57.2163
" />
<path d="M98.3645 57.2163
L98.5460 57.2163
" />
<path d="M98.5460 57.2163
L98.6669 57.2768
" />
<path d="M98.6669 57.2768
L98.7274 57.3373
" />
<path d="M98.7274 57.3373
L98.7879 57.4582
" />
<path d="M98.7879 57.4582
L98.7879 57.7606
" />
<path d="M98.7879 57.7606
L98.7274 57.8816
" />
<path d="M98.7274 57.8816
L98.6669 57.9421
" />
<path d="M98.6669 57.9421
L98.5460 58.0025
" />
<path d="M98.5460 58.0025
L98.1831 58.0025
" />
<path d="M98.1831 58.0025
L98.0622 57.9421
" />
<path d="M98.0622 57.9421
L98.0017 57.8816
" />
</g><text x="95.2500" y="62.8649"
textLength="4.9808" font-size="1.6933" lengthAdjust="spacingAndGlyphs"
text-anchor="middle" opacity="0" stroke-opacity="0">RV40</text>
<g class="stroked-text"><desc>RV40</desc>
<path d="M93.8892 62.8094
L93.4659 62.2047
" />
<path d="M93.1635 62.8094
L93.1635 61.5394
" />
<path d="M93.1635 61.5394
L93.6473 61.5394
" />
<path d="M93.6473 61.5394
L93.7683 61.5999
" />
<path d="M93.7683 61.5999
L93.8288 61.6604
" />
<path d="M93.8288 61.6604
L93.8892 61.7813
" />
<path d="M93.8892 61.7813
L93.8892 61.9628
" />
<path d="M93.8892 61.9628
L93.8288 62.0837
" />
<path d="M93.8288 62.0837
L93.7683 62.1442
" />
<path d="M93.7683 62.1442
L93.6473 62.2047
" />
<path d="M93.6473 62.2047
L93.1635 62.2047
" />
<path d="M94.2521 61.5394
L94.6754 62.8094
" />
<path d="M94.6754 62.8094
L95.0988 61.5394
" />
<path d="M96.0664 61.9628
L96.0664 62.8094
" />
<path d="M95.7640 61.4790
L95.4617 62.3861
" />
<path d="M95.4617 62.3861
L96.2478 62.3861
" />
<path d="M96.9735 61.5394
L97.0945 61.5394
" />
<path d="M97.0945 61.5394
L97.2154 61.5999
" />
<path d="M97.2154 61.5999
L97.2759 61.6604
" />
<path d="M97.2759 61.6604
L97.3364 61.7813
" />
<path d="M97.3364 61.7813
L97.3969 62.0232
" />
<path d="M97.3969 62.0232
L97.3969 62.3256
" />
<path d="M97.3969 62.3256
L97.3364 62.5675
" />
<path d="M97.3364 62.5675
L97.2759 62.6885
" />
<path d="M97.2759 62.6885
L97.2154 62.7490
" />
<path d="M97.2154 62.7490
L97.0945 62.8094
" />
<path d="M97.0945 62.8094
L96.9735 62.8094
" />
<path d="M96.9735 62.8094
L96.8526 62.7490
" />
<path d="M96.8526 62.7490
L96.7921 62.6885
" />
<path d="M96.7921 62.6885
L96.7316 62.5675
" />
<path d="M96.7316 62.5675
L96.6712 62.3256
" />
<path d="M96.6712 62.3256
L96.6712 62.0232
" />
<path d="M96.6712 62.0232
L96.7316 61.7813
" />
<path d="M96.7316 61.7813
L96.7921 61.6604
" />
<path d="M96.7921 61.6604
L96.8526 61.5999
" />
<path d="M96.8526 61.5999
L96.9735 61.5394
" />
</g><text x="95.2500" y="65.4049"
textLength="7.8836" font-size="1.6933" lengthAdjust="spacingAndGlyphs"
text-anchor="middle" opacity="0" stroke-opacity="0">10-50K</text>
<g class="stroked-text"><desc>10-50K</desc>
<path d="M92.3774 65.3494
L91.6517 65.3494
" />
<path d="M92.0145 65.3494
L92.0145 64.0794
" />
<path d="M92.0145 64.0794
L91.8936 64.2609
" />
<path d="M91.8936 64.2609
L91.7726 64.3818
" />
<path d="M91.7726 64.3818
L91.6517 64.4423
" />
<path d="M93.1635 64.0794
L93.2845 64.0794
" />
<path d="M93.2845 64.0794
L93.4054 64.1399
" />
<path d="M93.4054 64.1399
L93.4659 64.2004
" />
<path d="M93.4659 64.2004
L93.5264 64.3213
" />
<path d="M93.5264 64.3213
L93.5869 64.5632
" />
<path d="M93.5869 64.5632
L93.5869 64.8656
" />
<path d="M93.5869 64.8656
L93.5264 65.1075
" />
<path d="M93.5264 65.1075
L93.4659 65.2285
" />
<path d="M93.4659 65.2285
L93.4054 65.2890
" />
<path d="M93.4054 65.2890
L93.2845 65.3494
" />
<path d="M93.2845 65.3494
L93.1635 65.3494
" />
<path d="M93.1635 65.3494
L93.0426 65.2890
" />
<path d="M93.0426 65.2890
L92.9821 65.2285
" />
<path d="M92.9821 65.2285
L92.9216 65.1075
" />
<path d="M92.9216 65.1075
L92.8612 64.8656
" />
<path d="M92.8612 64.8656
L92.8612 64.5632
" />
<path d="M92.8612 64.5632
L92.9216 64.3213
" />
<path d="M92.9216 64.3213
L92.9821 64.2004
" />
<path d="M92.9821 64.2004
L93.0426 64.1399
" />
<path d="M93.0426 64.1399
L93.1635 64.0794
" />
<path d="M94.1311 64.8656
L95.0988 64.8656
" />
<path d="M96.3083 64.0794
L95.7035 64.0794
" />
<path d="M95.7035 64.0794
L95.6431 64.6842
" />
<path d="M95.6431 64.6842
L95.7035 64.6237
" />
<path d="M95.7035 64.6237
L95.8245 64.5632
" />
<path d="M95.8245 64.5632
L96.1269 64.5632
" />
<path d="M96.1269 64.5632
L96.2478 64.6237
" />
<path d="M96.2478 64.6237
L96.3083 64.6842
" />
<path d="M96.3083 64.6842
L96.3688 64.8051
" />
<path d="M96.3688 64.8051
L96.3688 65.1075
" />
<path d="M96.3688 65.1075
L96.3083 65.2285
" />
<path d="M96.3083 65.2285
L96.2478 65.2890
" />
<path d="M96.2478 65.2890
L96.1269 65.3494
" />
<path d="M96.1269 65.3494
L95.8245 65.3494
" />
<path d="M95.8245 65.3494
L95.7035 65.2890
" />
<path d="M95.7035 65.2890
L95.6431 65.2285
" />
<path d="M97.1549 64.0794
L97.2759 64.0794
" />
<path d="M97.2759 64.0794
L97.3968 64.1399
" />
<path d="M97.3968 64.1399
L97.4573 64.2004
" />
<path d="M97.4573 64.2004
L97.5178 64.3213
" />
<path d="M97.5178 64.3213
L97.5783 64.5632
" />
<path d="M97.5783 64.5632
L97.5783 64.8656
" />
<path d="M97.5783 64.8656
L97.5178 65.1075
" />
<path d="M97.5178 65.1075
L97.4573 65.2285
" />
<path d="M97.4573 65.2285
L97.3968 65.2890
" />
<path d="M97.3968 65.2890
L97.2759 65.3494
" />
<path d="M97.2759 65.3494
L97.1549 65.3494
" />
<path d="M97.1549 65.3494
L97.0340 65.2890
" />
<path d="M97.0340 65.2890
L96.9735 65.2285
" />
<path d="M96.9735 65.2285
L96.9130 65.1075
" />
<path d="M96.9130 65.1075
L96.8526 64.8656
" />
<path d="M96.8526 64.8656
L96.8526 64.5632
" />
<path d="M96.8526 64.5632
L96.9130 64.3213
" />
<path d="M96.9130 64.3213
L96.9735 64.2004
" />
<path d="M96.9735 64.2004
L97.0340 64.1399
" />
<path d="M97.0340 64.1399
L97.1549 64.0794
" />
<path d="M98.1225 65.3494
L98.1225 64.0794
" />
<path d="M98.8482 65.3494
L98.3040 64.6237
" />
<path d="M98.8482 64.0794
L98.1225 64.8051
" />
</g></g>
<g style="fill:none; 
stroke:#000000; stroke-width:0.4572; stroke-opacity:1; 
stroke-linecap:round; stroke-linejoin:round;">
<path d="M91.4399 54.6099
L99.0601 59.5630
" />
<path d="M99.0601 54.6099
L91.4399 59.5630
" />
</g>
<g style="fill:none; 
stroke:#000000; stroke-width:0.1524; stroke-opacity:1; 
stroke-linecap:round; stroke-linejoin:round;">
<rect x="44.450000" y="40.513000" width="1.270000" height="0.254000" rx="0.000000" />
<rect x="44.450000" y="37.973000" width="1.270000" height="0.254000" rx="0.000000" />
<rect x="44.450000" y="35.433000" width="1.270000" height="0.254000" rx="0.000000" />
</g>
<g style="fill:none; 
stroke:#000000; stroke-width:0.2540; stroke-opacity:1; 
stroke-linecap:round; stroke-linejoin:round;">
<rect x="44.450000" y="34.290000" width="2.540000" height="7.620000" rx="0.000000" />
</g>
<g style="fill:none; 
stroke:#000000; stroke-width:0.1524; stroke-opacity:1; 
stroke-linecap:round; stroke-linejoin:round;">
<path d="M44.4500 35.5600
L40.6400 35.5600
" />
<text x="42.5450" y="35.3060"
textLength="1.4127" font-size="1.6933" lengthAdjust="spacingAndGlyphs"
text-anchor="middle" opacity="0" stroke-opacity="0">1</text>
<g class="stroked-text"><desc>1</desc>
<path d="M42.9079 35.1425
L42.1822 35.1425
" />
<path d="M42.5450 35.1425
L42.5450 33.8725
" />
<path d="M42.5450 33.8725
L42.4241 34.0540
" />
<path d="M42.4241 34.0540
L42.3031 34.1749
" />
<path d="M42.3031 34.1749
L42.1822 34.2354
" />
</g><path d="M44.4500 38.1000
L40.6400 38.1000
" />
<text x="42.5450" y="37.8460"
textLength="1.4127" font-size="1.6933" lengthAdjust="spacingAndGlyphs"
text-anchor="middle" opacity="0" stroke-opacity="0">2</text>
<g class="stroked-text"><desc>2</desc>
<path d="M42.1822 36.5335
L42.2426 36.4730
" />
<path d="M42.2426 36.4730
L42.3636 36.4125
" />
<path d="M42.3636 36.4125
L42.6660 36.4125
" />
<path d="M42.6660 36.4125
L42.7869 36.4730
" />
<path d="M42.7869 36.4730
L42.8474 36.5335
" />
<path d="M42.8474 36.5335
L42.9079 36.6544
" />
<path d="M42.9079 36.6544
L42.9079 36.7754
" />
<path d="M42.9079 36.7754
L42.8474 36.9568
" />
<path d="M42.8474 36.9568
L42.1217 37.6825
" />
<path d="M42.1217 37.6825
L42.9079 37.6825
" />
</g><path d="M44.4500 40.6400
L40.6400 40.6400
" />
<text x="42.5450" y="40.3860"
textLength="1.4127" font-size="1.6933" lengthAdjust="spacingAndGlyphs"
text-anchor="middle" opacity="0" stroke-opacity="0">3</text>
<g class="stroked-text"><desc>3</desc>
<path d="M42.1217 38.9525
L42.9079 38.9525
" />
<path d="M42.9079 38.9525
L42.4845 39.4363
" />
<path d="M42.4845 39.4363
L42.6660 39.4363
" />
<path d="M42.6660 39.4363
L42.7869 39.4968
" />
<path d="M42.7869 39.4968
L42.8474 39.5573
" />
<path d="M42.8474 39.5573
L42.9079 39.6782
" />
<path d="M42.9079 39.6782
L42.9079 39.9806
" />
<path d="M42.9079 39.9806
L42.8474 40.1016
" />
<path d="M42.8474 40.1016
L42.7869 40.1621
" />
<path d="M42.7869 40.1621
L42.6660 40.2225
" />
<path d="M42.6660 40.2225
L42.3031 40.2225
" />
<path d="M42.3031 40.2225
L42.1822 40.1621
" />
<path d="M42.1822 40.1621
L42.1217 40.1016
" />
</g><text x="50.0645" y="37.4649"
textLength="3.5898" font-size="1.6933" lengthAdjust="spacingAndGlyphs"
text-anchor="middle" opacity="0" stroke-opacity="0">J11</text>
<g class="stroked-text"><desc>J11</desc>
<path d="M49.0364 36.1394
L49.0364 37.0466
" />
<path d="M49.0364 37.0466
L48.9759 37.2280
" />
<path d="M48.9759 37.2280
L48.8550 37.3490
" />
<path d="M48.8550 37.3490
L48.6735 37.4094
" />
<path d="M48.6735 37.4094
L48.5526 37.4094
" />
<path d="M50.3064 37.4094
L49.5807 37.4094
" />
<path d="M49.9435 37.4094
L49.9435 36.1394
" />
<path d="M49.9435 36.1394
L49.8226 36.3209
" />
<path d="M49.8226 36.3209
L49.7016 36.4418
" />
<path d="M49.7016 36.4418
L49.5807 36.5023
" />
<path d="M51.5159 37.4094
L50.7902 37.4094
" />
<path d="M51.1530 37.4094
L51.1530 36.1394
" />
<path d="M51.1530 36.1394
L51.0321 36.3209
" />
<path d="M51.0321 36.3209
L50.9111 36.4418
" />
<path d="M50.9111 36.4418
L50.7902 36.5023
" />
</g><text x="54.1465" y="40.0049"
textLength="11.7539" font-size="1.6933" lengthAdjust="spacingAndGlyphs"
text-anchor="middle" opacity="0" stroke-opacity="0">Conn_01x03</text>
<g class="stroked-text"><desc>Conn_01x03</desc>
<path d="M49.3992 39.8285
L49.3388 39.8890
" />
<path d="M49.3388 39.8890
L49.1573 39.9494
" />
<path d="M49.1573 39.9494
L49.0364 39.9494
" />
<path d="M49.0364 39.9494
L48.8550 39.8890
" />
<path d="M48.8550 39.8890
L48.7340 39.7680
" />
<path d="M48.7340 39.7680
L48.6735 39.6470
" />
<path d="M48.6735 39.6470
L48.6131 39.4051
" />
<path d="M48.6131 39.4051
L48.6131 39.2237
" />
<path d="M48.6131 39.2237
L48.6735 38.9818
" />
<path d="M48.6735 38.9818
L48.7340 38.8609
" />
<path d="M48.7340 38.8609
L48.8550 38.7399
" />
<path d="M48.8550 38.7399
L49.0364 38.6794
" />
<path d="M49.0364 38.6794
L49.1573 38.6794
" />
<path d="M49.1573 38.6794
L49.3388 38.7399
" />
<path d="M49.3388 38.7399
L49.3992 38.8004
" />
<path d="M50.1250 39.9494
L50.0040 39.8890
" />
<path d="M50.0040 39.8890
L49.9435 39.8285
" />
<path d="M49.9435 39.8285
L49.8831 39.7075
" />
<path d="M49.8831 39.7075
L49.8831 39.3447
" />
<path d="M49.8831 39.3447
L49.9435 39.2237
" />
<path d="M49.9435 39.2237
L50.0040 39.1632
" />
<path d="M50.0040 39.1632
L50.1250 39.1028
" />
<path d="M50.1250 39.1028
L50.3064 39.1028
" />
<path d="M50.3064 39.1028
L50.4273 39.1632
" />
<path d="M50.4273 39.1632
L50.4878 39.2237
" />
<path d="M50.4878 39.2237
L50.5483 39.3447
" />
<path d="M50.5483 39.3447
L50.5483 39.7075
" />
<path d="M50.5483 39.7075
L50.4878 39.8285
" />
<path d="M50.4878 39.8285
L50.4273 39.8890
" />
<path d="M50.4273 39.8890
L50.3064 39.9494
" />
<path d="M50.3064 39.9494
L50.1250 39.9494
" />
<path d="M51.0925 39.1028
L51.0925 39.9494
" />
<path d="M51.0925 39.2237
L51.1530 39.1632
" />
<path d="M51.1530 39.1632
L51.2740 39.1028
" />
<path d="M51.2740 39.1028
L51.4554 39.1028
" />
<path d="M51.4554 39.1028
L51.5763 39.1632
" />
<path d="M51.5763 39.1632
L51.6368 39.2842
" />
<path d="M51.6368 39.2842
L51.6368 39.9494
" />
<path d="M52.2415 39.1028
L52.2415 39.9494
" />
<path d="M52.2415 39.2237
L52.3020 39.1632
" />
<path d="M52.3020 39.1632
L52.4230 39.1028
" />
<path d="M52.4230 39.1028
L52.6044 39.1028
" />
<path d="M52.6044 39.1028
L52.7253 39.1632
" />
<path d="M52.7253 39.1632
L52.7858 39.2842
" />
<path d="M52.7858 39.2842
L52.7858 39.9494
" />
<path d="M53.0882 40.0704
L54.0558 40.0704
" />
<path d="M54.6000 38.6794
L54.7210 38.6794
" />
<path d="M54.7210 38.6794
L54.8419 38.7399
" />
<path d="M54.8419 38.7399
L54.9024 38.8004
" />
<path d="M54.9024 38.8004
L54.9629 38.9213
" />
<path d="M54.9629 38.9213
L55.0234 39.1632
" />
<path d="M55.0234 39.1632
L55.0234 39.4656
" />
<path d="M55.0234 39.4656
L54.9629 39.7075
" />
<path d="M54.9629 39.7075
L54.9024 39.8285
" />
<path d="M54.9024 39.8285
L54.8419 39.8890
" />
<path d="M54.8419 39.8890
L54.7210 39.9494
" />
<path d="M54.7210 39.9494
L54.6000 39.9494
" />
<path d="M54.6000 39.9494
L54.4791 39.8890
" />
<path d="M54.4791 39.8890
L54.4186 39.8285
" />
<path d="M54.4186 39.8285
L54.3581 39.7075
" />
<path d="M54.3581 39.7075
L54.2977 39.4656
" />
<path d="M54.2977 39.4656
L54.2977 39.1632
" />
<path d="M54.2977 39.1632
L54.3581 38.9213
" />
<path d="M54.3581 38.9213
L54.4186 38.8004
" />
<path d="M54.4186 38.8004
L54.4791 38.7399
" />
<path d="M54.4791 38.7399
L54.6000 38.6794
" />
<path d="M56.2329 39.9494
L55.5072 39.9494
" />
<path d="M55.8700 39.9494
L55.8700 38.6794
" />
<path d="M55.8700 38.6794
L55.7491 38.8609
" />
<path d="M55.7491 38.8609
L55.6281 38.9818
" />
<path d="M55.6281 38.9818
L55.5072 39.0423
" />
<path d="M56.6562 39.9494
L57.3214 39.1028
" />
<path d="M56.6562 39.1028
L57.3214 39.9494
" />
<path d="M58.0471 38.6794
L58.1681 38.6794
" />
<path d="M58.1681 38.6794
L58.2890 38.7399
" />
<path d="M58.2890 38.7399
L58.3495 38.8004
" />
<path d="M58.3495 38.8004
L58.4100 38.9213
" />
<path d="M58.4100 38.9213
L58.4705 39.1632
" />
<path d="M58.4705 39.1632
L58.4705 39.4656
" />
<path d="M58.4705 39.4656
L58.4100 39.7075
" />
<path d="M58.4100 39.7075
L58.3495 39.8285
" />
<path d="M58.3495 39.8285
L58.2890 39.8890
" />
<path d="M58.2890 39.8890
L58.1681 39.9494
" />
<path d="M58.1681 39.9494
L58.0471 39.9494
" />
<path d="M58.0471 39.9494
L57.9262 39.8890
" />
<path d="M57.9262 39.8890
L57.8657 39.8285
" />
<path d="M57.8657 39.8285
L57.8052 39.7075
" />
<path d="M57.8052 39.7075
L57.7448 39.4656
" />
<path d="M57.7448 39.4656
L57.7448 39.1632
" />
<path d="M57.7448 39.1632
L57.8052 38.9213
" />
<path d="M57.8052 38.9213
L57.8657 38.8004
" />
<path d="M57.8657 38.8004
L57.9262 38.7399
" />
<path d="M57.9262 38.7399
L58.0471 38.6794
" />
<path d="M58.8938 38.6794
L59.6800 38.6794
" />
<path d="M59.6800 38.6794
L59.2566 39.1632
" />
<path d="M59.2566 39.1632
L59.4381 39.1632
" />
<path d="M59.4381 39.1632
L59.5590 39.2237
" />
<path d="M59.5590 39.2237
L59.6195 39.2842
" />
<path d="M59.6195 39.2842
L59.6800 39.4051
" />
<path d="M59.6800 39.4051
L59.6800 39.7075
" />
<path d="M59.6800 39.7075
L59.6195 39.8285
" />
<path d="M59.6195 39.8285
L59.5590 39.8890
" />
<path d="M59.5590 39.8890
L59.4381 39.9494
" />
<path d="M59.4381 39.9494
L59.0752 39.9494
" />
<path d="M59.0752 39.9494
L58.9543 39.8890
" />
<path d="M58.9543 39.8890
L58.8938 39.8285
" />
</g></g>
<g style="fill:none; 
stroke:#000000; stroke-width:0.4572; stroke-opacity:1; 
stroke-linecap:round; stroke-linejoin:round;">
<path d="M40.6399 34.1630
L47.1170 42.0370
" />
<path d="M47.1170 34.1630
L40.6399 42.0370
" />
</g>
<g style="fill:none; 
stroke:#000000; stroke-width:0.1524; stroke-opacity:1; 
stroke-linecap:round; stroke-linejoin:round;">
<g transform="rotate(-90.000000 77.4700 81.4705)">
<text x="77.4700" y="82.1055"
textLength="4.0737" font-size="1.6933" lengthAdjust="spacingAndGlyphs"
text-anchor="end" opacity="0" stroke-opacity="0">GND</text>
</g>
<g class="stroked-text"><desc>GND</desc>
<path d="M76.8400 84.4735
L76.7795 84.5945
" />
<path d="M76.7795 84.5945
L76.7795 84.7759
" />
<path d="M76.7795 84.7759
L76.8400 84.9573
" />
<path d="M76.8400 84.9573
L76.9610 85.0783
" />
<path d="M76.9610 85.0783
L77.0819 85.1388
" />
<path d="M77.0819 85.1388
L77.3238 85.1992
" />
<path d="M77.3238 85.1992
L77.5052 85.1992
" />
<path d="M77.5052 85.1992
L77.7471 85.1388
" />
<path d="M77.7471 85.1388
L77.8681 85.0783
" />
<path d="M77.8681 85.0783
L77.9891 84.9573
" />
<path d="M77.9891 84.9573
L78.0495 84.7759
" />
<path d="M78.0495 84.7759
L78.0495 84.6550
" />
<path d="M78.0495 84.6550
L77.9891 84.4735
" />
<path d="M77.9891 84.4735
L77.9286 84.4131
" />
<path d="M77.9286 84.4131
L77.5052 84.4131
" />
<path d="M77.5052 84.4131
L77.5052 84.6550
" />
<path d="M78.0495 83.8688
L76.7795 83.8688
" />
<path d="M76.7795 83.8688
L78.0495 83.1431
" />
<path d="M78.0495 83.1431
L76.7795 83.1431
" />
<path d="M78.0495 82.5383
L76.7795 82.5383
" />
<path d="M76.7795 82.5383
L76.7795 82.2359
" />
<path d="M76.7795 82.2359
L76.8400 82.0545
" />
<path d="M76.8400 82.0545
L76.9610 81.9335
" />
<path d="M76.9610 81.9335
L77.0819 81.8730
" />
<path d="M77.0819 81.8730
L77.3238 81.8126
" />
<path d="M77.3238 81.8126
L77.5052 81.8126
" />
<path d="M77.5052 81.8126
L77.7471 81.8730
" />
<path d="M77.7471 81.8730
L77.8681 81.9335
" />
<path d="M77.8681 81.9335
L77.9891 82.0545
" />
<path d="M77.9891 82.0545
L78.0495 82.2359
" />
<path d="M78.0495 82.2359
L78.0495 82.5383
" />
</g><path style="fill:none; 
stroke:#000000; stroke-width:0.1524; stroke-opacity:1; 
stroke-linecap:round; stroke-linejoin:round;fill:none"
d="M 77.4700,80.0100
76.8350,80.6450
77.4700,81.2800
78.1050,80.6450
Z" /> 
</g>
<g style="fill:none; 
stroke:#000000; stroke-width:0.1524; stroke-opacity:1; 
stroke-linecap:round; stroke-linejoin:round;">
<text x="117.0305" y="55.2450"
textLength="3.8318" font-size="1.6933" lengthAdjust="spacingAndGlyphs"
text-anchor="start" opacity="0" stroke-opacity="0">OUT</text>
<g class="stroked-text"><desc>OUT</desc>
<path d="M117.6749 53.9195
L117.9168 53.9195
" />
<path d="M117.9168 53.9195
L118.0378 53.9800
" />
<path d="M118.0378 53.9800
L118.1587 54.1010
" />
<path d="M118.1587 54.1010
L118.2192 54.3429
" />
<path d="M118.2192 54.3429
L118.2192 54.7662
" />
<path d="M118.2192 54.7662
L118.1587 55.0081
" />
<path d="M118.1587 55.0081
L118.0378 55.1291
" />
<path d="M118.0378 55.1291
L117.9168 55.1895
" />
<path d="M117.9168 55.1895
L117.6749 55.1895
" />
<path d="M117.6749 55.1895
L117.5540 55.1291
" />
<path d="M117.5540 55.1291
L117.4330 55.0081
" />
<path d="M117.4330 55.0081
L117.3726 54.7662
" />
<path d="M117.3726 54.7662
L117.3726 54.3429
" />
<path d="M117.3726 54.3429
L117.4330 54.1010
" />
<path d="M117.4330 54.1010
L117.5540 53.9800
" />
<path d="M117.5540 53.9800
L117.6749 53.9195
" />
<path d="M118.7635 53.9195
L118.7635 54.9476
" />
<path d="M118.7635 54.9476
L118.8240 55.0686
" />
<path d="M118.8240 55.0686
L118.8845 55.1291
" />
<path d="M118.8845 55.1291
L119.0054 55.1895
" />
<path d="M119.0054 55.1895
L119.2473 55.1895
" />
<path d="M119.2473 55.1895
L119.3683 55.1291
" />
<path d="M119.3683 55.1291
L119.4288 55.0686
" />
<path d="M119.4288 55.0686
L119.4892 54.9476
" />
<path d="M119.4892 54.9476
L119.4892 53.9195
" />
<path d="M119.9126 53.9195
L120.6383 53.9195
" />
<path d="M120.2755 55.1895
L120.2755 53.9195
" />
</g><path style="fill:none; 
stroke:#000000; stroke-width:0.1524; stroke-opacity:1; 
stroke-linecap:round; stroke-linejoin:round;fill:none"
d="M 116.8400,54.6100
116.2050,53.9750
115.5700,53.9750
115.5700,55.2450
116.2050,55.2450
Z" /> 
</g>
<g style="fill:none; 
stroke:#000000; stroke-width:0.1524; stroke-opacity:1; 
stroke-linecap:round; stroke-linejoin:round;">
<text x="67.1195" y="59.0550"
textLength="2.1385" font-size="1.6933" lengthAdjust="spacingAndGlyphs"
text-anchor="end" opacity="0" stroke-opacity="0">IN</text>
<g class="stroked-text"><desc>IN</desc>
<path d="M65.3863 58.9995
L65.3863 57.7295
" />
<path d="M65.9911 58.9995
L65.9911 57.7295
" />
<path d="M65.9911 57.7295
L66.7168 58.9995
" />
<path d="M66.7168 58.9995
L66.7168 57.7295
" />
</g><path style="fill:none; 
stroke:#000000; stroke-width:0.1524; stroke-opacity:1; 
stroke-linecap:round; stroke-linejoin:round;fill:none"
d="M 68.5800,58.4200
67.9450,57.7850
67.3100,57.7850
67.3100,59.0550
67.9450,59.0550
Z" /> 
</g>
<g style="fill:none; 
stroke:#000000; stroke-width:0.1524; stroke-opacity:1; 
stroke-linecap:round; stroke-linejoin:round;">
<text x="39.1795" y="41.2750"
textLength="3.8318" font-size="1.6933" lengthAdjust="spacingAndGlyphs"
text-anchor="end" opacity="0" stroke-opacity="0">OUT</text>
<g class="stroked-text"><desc>OUT</desc>
<path d="M35.9949 39.9495
L36.2368 39.9495
" />
<path d="M36.2368 39.9495
L36.3578 40.0100
" />
<path d="M36.3578 40.0100
L36.4787 40.1310
" />
<path d="M36.4787 40.1310
L36.5392 40.3729
" />
<path d="M36.5392 40.3729
L36.5392 40.7962
" />
<path d="M36.5392 40.7962
L36.4787 41.0381
" />
<path d="M36.4787 41.0381
L36.3578 41.1591
" />
<path d="M36.3578 41.1591
L36.2368 41.2195
" />
<path d="M36.2368 41.2195
L35.9949 41.2195
" />
<path d="M35.9949 41.2195
L35.8740 41.1591
" />
<path d="M35.8740 41.1591
L35.7530 41.0381
" />
<path d="M35.7530 41.0381
L35.6926 40.7962
" />
<path d="M35.6926 40.7962
L35.6926 40.3729
" />
<path d="M35.6926 40.3729
L35.7530 40.1310
" />
<path d="M35.7530 40.1310
L35.8740 40.0100
" />
<path d="M35.8740 40.0100
L35.9949 39.9495
" />
<path d="M37.0835 39.9495
L37.0835 40.9776
" />
<path d="M37.0835 40.9776
L37.1440 41.0986
" />
<path d="M37.1440 41.0986
L37.2045 41.1591
" />
<path d="M37.2045 41.1591
L37.3254 41.2195
" />
<path d="M37.3254 41.2195
L37.5673 41.2195
" />
<path d="M37.5673 41.2195
L37.6883 41.1591
" />
<path d="M37.6883 41.1591
L37.7488 41.0986
" />
<path d="M37.7488 41.0986
L37.8092 40.9776
" />
<path d="M37.8092 40.9776
L37.8092 39.9495
" />
<path d="M38.2326 39.9495
L38.9583 39.9495
" />
<path d="M38.5955 41.2195
L38.5955 39.9495
" />
</g><path style="fill:none; 
stroke:#000000; stroke-width:0.1524; stroke-opacity:1; 
stroke-linecap:round; stroke-linejoin:round;fill:none"
d="M 39.3700,40.6400
40.0050,41.2750
40.6400,41.2750
40.6400,40.0050
40.0050,40.0050
Z" /> 
</g>
<g style="fill:none; 
stroke:#000000; stroke-width:0.1524; stroke-opacity:1; 
stroke-linecap:round; stroke-linejoin:round;">
<text x="39.1795" y="38.7350"
textLength="2.1385" font-size="1.6933" lengthAdjust="spacingAndGlyphs"
text-anchor="end" opacity="0" stroke-opacity="0">IN</text>
<g class="stroked-text"><desc>IN</desc>
<path d="M37.4463 38.6795
L37.4463 37.4095
" />
<path d="M38.0511 38.6795
L38.0511 37.4095
" />
<path d="M38.0511 37.4095
L38.7768 38.6795
" />
<path d="M38.7768 38.6795
L38.7768 37.4095
" />
</g><path style="fill:none; 
stroke:#000000; stroke-width:0.1524; stroke-opacity:1; 
stroke-linecap:round; stroke-linejoin:round;fill:none"
d="M 40.6400,38.1000
40.0050,37.4650
39.3700,37.4650
39.3700,38.7350
40.0050,38.7350
Z" /> 
</g>
<g style="fill:none; 
stroke:#000000; stroke-width:0.1524; stroke-opacity:1; 
stroke-linecap:round; stroke-linejoin:round;">
<text x="39.1795" y="36.1950"
textLength="4.0737" font-size="1.6933" lengthAdjust="spacingAndGlyphs"
text-anchor="end" opacity="0" stroke-opacity="0">GND</text>
<g class="stroked-text"><desc>GND</desc>
<path d="M36.1764 34.9300
L36.0554 34.8695
" />
<path d="M36.0554 34.8695
L35.8740 34.8695
" />
<path d="M35.8740 34.8695
L35.6926 34.9300
" />
<path d="M35.6926 34.9300
L35.5716 35.0510
" />
<path d="M35.5716 35.0510
L35.5111 35.1719
" />
<path d="M35.5111 35.1719
L35.4507 35.4138
" />
<path d="M35.4507 35.4138
L35.4507 35.5952
" />
<path d="M35.4507 35.5952
L35.5111 35.8371
" />
<path d="M35.5111 35.8371
L35.5716 35.9581
" />
<path d="M35.5716 35.9581
L35.6926 36.0791
" />
<path d="M35.6926 36.0791
L35.8740 36.1395
" />
<path d="M35.8740 36.1395
L35.9949 36.1395
" />
<path d="M35.9949 36.1395
L36.1764 36.0791
" />
<path d="M36.1764 36.0791
L36.2368 36.0186
" />
<path d="M36.2368 36.0186
L36.2368 35.5952
" />
<path d="M36.2368 35.5952
L35.9949 35.5952
" />
<path d="M36.7811 36.1395
L36.7811 34.8695
" />
<path d="M36.7811 34.8695
L37.5068 36.1395
" />
<path d="M37.5068 36.1395
L37.5068 34.8695
" />
<path d="M38.1116 36.1395
L38.1116 34.8695
" />
<path d="M38.1116 34.8695
L38.4140 34.8695
" />
<path d="M38.4140 34.8695
L38.5954 34.9300
" />
<path d="M38.5954 34.9300
L38.7164 35.0510
" />
<path d="M38.7164 35.0510
L38.7769 35.1719
" />
<path d="M38.7769 35.1719
L38.8373 35.4138
" />
<path d="M38.8373 35.4138
L38.8373 35.5952
" />
<path d="M38.8373 35.5952
L38.7769 35.8371
" />
<path d="M38.7769 35.8371
L38.7164 35.9581
" />
<path d="M38.7164 35.9581
L38.5954 36.0791
" />
<path d="M38.5954 36.0791
L38.4140 36.1395
" />
<path d="M38.4140 36.1395
L38.1116 36.1395
" />
</g><path style="fill:none; 
stroke:#000000; stroke-width:0.1524; stroke-opacity:1; 
stroke-linecap:round; stroke-linejoin:round;fill:none"
d="M 40.6400,35.5600
40.0050,34.9250
39.3700,34.9250
39.3700,36.1950
40.0050,36.1950
Z" /> 
</g>
<g style="fill:none; 
stroke:#000000; stroke-width:0.1524; stroke-opacity:1; 
stroke-linecap:round; stroke-linejoin:round;">
<text x="111.2520" y="84.4590"
textLength="54.6917" font-size="1.6933" lengthAdjust="spacingAndGlyphs"
text-anchor="middle" opacity="0" stroke-opacity="0">todo: mark with jumpers, etc... to make easy to change</text>
<g class="stroked-text"><desc>todo: mark with jumpers, etc... to make easy to change</desc>
<path d="M84.1287 83.5569
L84.6125 83.5569
" />
<path d="M84.3101 83.1335
L84.3101 84.2221
" />
<path d="M84.3101 84.2221
L84.3706 84.3431
" />
<path d="M84.3706 84.3431
L84.4916 84.4035
" />
<path d="M84.4916 84.4035
L84.6125 84.4035
" />
<path d="M85.2173 84.4035
L85.0963 84.3431
" />
<path d="M85.0963 84.3431
L85.0358 84.2826
" />
<path d="M85.0358 84.2826
L84.9754 84.1616
" />
<path d="M84.9754 84.1616
L84.9754 83.7988
" />
<path d="M84.9754 83.7988
L85.0358 83.6778
" />
<path d="M85.0358 83.6778
L85.0963 83.6173
" />
<path d="M85.0963 83.6173
L85.2173 83.5569
" />
<path d="M85.2173 83.5569
L85.3987 83.5569
" />
<path d="M85.3987 83.5569
L85.5196 83.6173
" />
<path d="M85.5196 83.6173
L85.5801 83.6778
" />
<path d="M85.5801 83.6778
L85.6406 83.7988
" />
<path d="M85.6406 83.7988
L85.6406 84.1616
" />
<path d="M85.6406 84.1616
L85.5801 84.2826
" />
<path d="M85.5801 84.2826
L85.5196 84.3431
" />
<path d="M85.5196 84.3431
L85.3987 84.4035
" />
<path d="M85.3987 84.4035
L85.2173 84.4035
" />
<path d="M86.7291 84.4035
L86.7291 83.1335
" />
<path d="M86.7291 84.3431
L86.6082 84.4035
" />
<path d="M86.6082 84.4035
L86.3663 84.4035
" />
<path d="M86.3663 84.4035
L86.2453 84.3431
" />
<path d="M86.2453 84.3431
L86.1848 84.2826
" />
<path d="M86.1848 84.2826
L86.1244 84.1616
" />
<path d="M86.1244 84.1616
L86.1244 83.7988
" />
<path d="M86.1244 83.7988
L86.1848 83.6778
" />
<path d="M86.1848 83.6778
L86.2453 83.6173
" />
<path d="M86.2453 83.6173
L86.3663 83.5569
" />
<path d="M86.3663 83.5569
L86.6082 83.5569
" />
<path d="M86.6082 83.5569
L86.7291 83.6173
" />
<path d="M87.5153 84.4035
L87.3943 84.3431
" />
<path d="M87.3943 84.3431
L87.3338 84.2826
" />
<path d="M87.3338 84.2826
L87.2734 84.1616
" />
<path d="M87.2734 84.1616
L87.2734 83.7988
" />
<path d="M87.2734 83.7988
L87.3338 83.6778
" />
<path d="M87.3338 83.6778
L87.3943 83.6173
" />
<path d="M87.3943 83.6173
L87.5153 83.5569
" />
<path d="M87.5153 83.5569
L87.6967 83.5569
" />
<path d="M87.6967 83.5569
L87.8176 83.6173
" />
<path d="M87.8176 83.6173
L87.8781 83.6778
" />
<path d="M87.8781 83.6778
L87.9386 83.7988
" />
<path d="M87.9386 83.7988
L87.9386 84.1616
" />
<path d="M87.9386 84.1616
L87.8781 84.2826
" />
<path d="M87.8781 84.2826
L87.8176 84.3431
" />
<path d="M87.8176 84.3431
L87.6967 84.4035
" />
<path d="M87.6967 84.4035
L87.5153 84.4035
" />
<path d="M88.4828 84.2826
L88.5433 84.3431
" />
<path d="M88.5433 84.3431
L88.4828 84.4035
" />
<path d="M88.4828 84.4035
L88.4224 84.3431
" />
<path d="M88.4224 84.3431
L88.4828 84.2826
" />
<path d="M88.4828 84.2826
L88.4828 84.4035
" />
<path d="M88.4828 83.6173
L88.5433 83.6778
" />
<path d="M88.5433 83.6778
L88.4828 83.7383
" />
<path d="M88.4828 83.7383
L88.4224 83.6778
" />
<path d="M88.4224 83.6778
L88.4828 83.6173
" />
<path d="M88.4828 83.6173
L88.4828 83.7383
" />
<path d="M90.0552 84.4035
L90.0552 83.5569
" />
<path d="M90.0552 83.6778
L90.1157 83.6173
" />
<path d="M90.1157 83.6173
L90.2367 83.5569
" />
<path d="M90.2367 83.5569
L90.4181 83.5569
" />
<path d="M90.4181 83.5569
L90.5390 83.6173
" />
<path d="M90.5390 83.6173
L90.5995 83.7383
" />
<path d="M90.5995 83.7383
L90.5995 84.4035
" />
<path d="M90.5995 83.7383
L90.6600 83.6173
" />
<path d="M90.6600 83.6173
L90.7809 83.5569
" />
<path d="M90.7809 83.5569
L90.9624 83.5569
" />
<path d="M90.9624 83.5569
L91.0833 83.6173
" />
<path d="M91.0833 83.6173
L91.1438 83.7383
" />
<path d="M91.1438 83.7383
L91.1438 84.4035
" />
<path d="M92.2928 84.4035
L92.2928 83.7383
" />
<path d="M92.2928 83.7383
L92.2323 83.6173
" />
<path d="M92.2323 83.6173
L92.1114 83.5569
" />
<path d="M92.1114 83.5569
L91.8695 83.5569
" />
<path d="M91.8695 83.5569
L91.7485 83.6173
" />
<path d="M92.2928 84.3431
L92.1719 84.4035
" />
<path d="M92.1719 84.4035
L91.8695 84.4035
" />
<path d="M91.8695 84.4035
L91.7485 84.3431
" />
<path d="M91.7485 84.3431
L91.6881 84.2221
" />
<path d="M91.6881 84.2221
L91.6881 84.1011
" />
<path d="M91.6881 84.1011
L91.7485 83.9802
" />
<path d="M91.7485 83.9802
L91.8695 83.9197
" />
<path d="M91.8695 83.9197
L92.1719 83.9197
" />
<path d="M92.1719 83.9197
L92.2928 83.8592
" />
<path d="M92.8975 84.4035
L92.8975 83.5569
" />
<path d="M92.8975 83.7988
L92.9580 83.6778
" />
<path d="M92.9580 83.6778
L93.0185 83.6173
" />
<path d="M93.0185 83.6173
L93.1394 83.5569
" />
<path d="M93.1394 83.5569
L93.2604 83.5569
" />
<path d="M93.6837 84.4035
L93.6837 83.1335
" />
<path d="M93.8047 83.9197
L94.1675 84.4035
" />
<path d="M94.1675 83.5569
L93.6837 84.0407
" />
<path d="M95.5585 83.5569
L95.8004 84.4035
" />
<path d="M95.8004 84.4035
L96.0423 83.7988
" />
<path d="M96.0423 83.7988
L96.2842 84.4035
" />
<path d="M96.2842 84.4035
L96.5261 83.5569
" />
<path d="M97.0099 84.4035
L97.0099 83.5569
" />
<path d="M97.0099 83.1335
L96.9495 83.1940
" />
<path d="M96.9495 83.1940
L97.0099 83.2545
" />
<path d="M97.0099 83.2545
L97.0704 83.1940
" />
<path d="M97.0704 83.1940
L97.0099 83.1335
" />
<path d="M97.0099 83.1335
L97.0099 83.2545
" />
<path d="M97.4333 83.5569
L97.9171 83.5569
" />
<path d="M97.6147 83.1335
L97.6147 84.2221
" />
<path d="M97.6147 84.2221
L97.6752 84.3431
" />
<path d="M97.6752 84.3431
L97.7962 84.4035
" />
<path d="M97.7962 84.4035
L97.9171 84.4035
" />
<path d="M98.3404 84.4035
L98.3404 83.1335
" />
<path d="M98.8847 84.4035
L98.8847 83.7383
" />
<path d="M98.8847 83.7383
L98.8242 83.6173
" />
<path d="M98.8242 83.6173
L98.7033 83.5569
" />
<path d="M98.7033 83.5569
L98.5219 83.5569
" />
<path d="M98.5219 83.5569
L98.4009 83.6173
" />
<path d="M98.4009 83.6173
L98.3404 83.6778
" />
<path d="M100.4570 83.5569
L100.4570 84.6454
" />
<path d="M100.4570 84.6454
L100.3966 84.7664
" />
<path d="M100.3966 84.7664
L100.2756 84.8269
" />
<path d="M100.2756 84.8269
L100.2151 84.8269
" />
<path d="M100.4570 83.1335
L100.3966 83.1940
" />
<path d="M100.3966 83.1940
L100.4570 83.2545
" />
<path d="M100.4570 83.2545
L100.5175 83.1940
" />
<path d="M100.5175 83.1940
L100.4570 83.1335
" />
<path d="M100.4570 83.1335
L100.4570 83.2545
" />
<path d="M101.6061 83.5569
L101.6061 84.4035
" />
<path d="M101.0618 83.5569
L101.0618 84.2221
" />
<path d="M101.0618 84.2221
L101.1223 84.3431
" />
<path d="M101.1223 84.3431
L101.2433 84.4035
" />
<path d="M101.2433 84.4035
L101.4247 84.4035
" />
<path d="M101.4247 84.4035
L101.5456 84.3431
" />
<path d="M101.5456 84.3431
L101.6061 84.2826
" />
<path d="M102.2108 84.4035
L102.2108 83.5569
" />
<path d="M102.2108 83.6778
L102.2713 83.6173
" />
<path d="M102.2713 83.6173
L102.3923 83.5569
" />
<path d="M102.3923 83.5569
L102.5737 83.5569
" />
<path d="M102.5737 83.5569
L102.6946 83.6173
" />
<path d="M102.6946 83.6173
L102.7551 83.7383
" />
<path d="M102.7551 83.7383
L102.7551 84.4035
" />
<path d="M102.7551 83.7383
L102.8156 83.6173
" />
<path d="M102.8156 83.6173
L102.9365 83.5569
" />
<path d="M102.9365 83.5569
L103.1180 83.5569
" />
<path d="M103.1180 83.5569
L103.2389 83.6173
" />
<path d="M103.2389 83.6173
L103.2994 83.7383
" />
<path d="M103.2994 83.7383
L103.2994 84.4035
" />
<path d="M103.9041 83.5569
L103.9041 84.8269
" />
<path d="M103.9041 83.6173
L104.0251 83.5569
" />
<path d="M104.0251 83.5569
L104.2670 83.5569
" />
<path d="M104.2670 83.5569
L104.3879 83.6173
" />
<path d="M104.3879 83.6173
L104.4484 83.6778
" />
<path d="M104.4484 83.6778
L104.5089 83.7988
" />
<path d="M104.5089 83.7988
L104.5089 84.1616
" />
<path d="M104.5089 84.1616
L104.4484 84.2826
" />
<path d="M104.4484 84.2826
L104.3879 84.3431
" />
<path d="M104.3879 84.3431
L104.2670 84.4035
" />
<path d="M104.2670 84.4035
L104.0251 84.4035
" />
<path d="M104.0251 84.4035
L103.9041 84.3431
" />
<path d="M105.5369 84.3431
L105.4160 84.4035
" />
<path d="M105.4160 84.4035
L105.1741 84.4035
" />
<path d="M105.1741 84.4035
L105.0531 84.3431
" />
<path d="M105.0531 84.3431
L104.9927 84.2221
" />
<path d="M104.9927 84.2221
L104.9927 83.7383
" />
<path d="M104.9927 83.7383
L105.0531 83.6173
" />
<path d="M105.0531 83.6173
L105.1741 83.5569
" />
<path d="M105.1741 83.5569
L105.4160 83.5569
" />
<path d="M105.4160 83.5569
L105.5369 83.6173
" />
<path d="M105.5369 83.6173
L105.5974 83.7383
" />
<path d="M105.5974 83.7383
L105.5974 83.8592
" />
<path d="M105.5974 83.8592
L104.9927 83.9802
" />
<path d="M106.1417 84.4035
L106.1417 83.5569
" />
<path d="M106.1417 83.7988
L106.2022 83.6778
" />
<path d="M106.2022 83.6778
L106.2627 83.6173
" />
<path d="M106.2627 83.6173
L106.3836 83.5569
" />
<path d="M106.3836 83.5569
L106.5046 83.5569
" />
<path d="M106.8675 84.3431
L106.9884 84.4035
" />
<path d="M106.9884 84.4035
L107.2303 84.4035
" />
<path d="M107.2303 84.4035
L107.3513 84.3431
" />
<path d="M107.3513 84.3431
L107.4117 84.2221
" />
<path d="M107.4117 84.2221
L107.4117 84.1616
" />
<path d="M107.4117 84.1616
L107.3513 84.0407
" />
<path d="M107.3513 84.0407
L107.2303 83.9802
" />
<path d="M107.2303 83.9802
L107.0489 83.9802
" />
<path d="M107.0489 83.9802
L106.9279 83.9197
" />
<path d="M106.9279 83.9197
L106.8675 83.7988
" />
<path d="M106.8675 83.7988
L106.8675 83.7383
" />
<path d="M106.8675 83.7383
L106.9279 83.6173
" />
<path d="M106.9279 83.6173
L107.0489 83.5569
" />
<path d="M107.0489 83.5569
L107.2303 83.5569
" />
<path d="M107.2303 83.5569
L107.3513 83.6173
" />
<path d="M108.0165 84.3431
L108.0165 84.4035
" />
<path d="M108.0165 84.4035
L107.9560 84.5245
" />
<path d="M107.9560 84.5245
L107.8956 84.5850
" />
<path d="M110.0122 84.3431
L109.8913 84.4035
" />
<path d="M109.8913 84.4035
L109.6494 84.4035
" />
<path d="M109.6494 84.4035
L109.5284 84.3431
" />
<path d="M109.5284 84.3431
L109.4680 84.2221
" />
<path d="M109.4680 84.2221
L109.4680 83.7383
" />
<path d="M109.4680 83.7383
L109.5284 83.6173
" />
<path d="M109.5284 83.6173
L109.6494 83.5569
" />
<path d="M109.6494 83.5569
L109.8913 83.5569
" />
<path d="M109.8913 83.5569
L110.0122 83.6173
" />
<path d="M110.0122 83.6173
L110.0727 83.7383
" />
<path d="M110.0727 83.7383
L110.0727 83.8592
" />
<path d="M110.0727 83.8592
L109.4680 83.9802
" />
<path d="M110.4356 83.5569
L110.9194 83.5569
" />
<path d="M110.6170 83.1335
L110.6170 84.2221
" />
<path d="M110.6170 84.2221
L110.6775 84.3431
" />
<path d="M110.6775 84.3431
L110.7985 84.4035
" />
<path d="M110.7985 84.4035
L110.9194 84.4035
" />
<path d="M111.8870 84.3431
L111.7661 84.4035
" />
<path d="M111.7661 84.4035
L111.5242 84.4035
" />
<path d="M111.5242 84.4035
L111.4032 84.3431
" />
<path d="M111.4032 84.3431
L111.3427 84.2826
" />
<path d="M111.3427 84.2826
L111.2823 84.1616
" />
<path d="M111.2823 84.1616
L111.2823 83.7988
" />
<path d="M111.2823 83.7988
L111.3427 83.6778
" />
<path d="M111.3427 83.6778
L111.4032 83.6173
" />
<path d="M111.4032 83.6173
L111.5242 83.5569
" />
<path d="M111.5242 83.5569
L111.7661 83.5569
" />
<path d="M111.7661 83.5569
L111.8870 83.6173
" />
<path d="M112.4313 84.2826
L112.4918 84.3431
" />
<path d="M112.4918 84.3431
L112.4313 84.4035
" />
<path d="M112.4313 84.4035
L112.3709 84.3431
" />
<path d="M112.3709 84.3431
L112.4313 84.2826
" />
<path d="M112.4313 84.2826
L112.4313 84.4035
" />
<path d="M113.0361 84.2826
L113.0966 84.3431
" />
<path d="M113.0966 84.3431
L113.0361 84.4035
" />
<path d="M113.0361 84.4035
L112.9757 84.3431
" />
<path d="M112.9757 84.3431
L113.0361 84.2826
" />
<path d="M113.0361 84.2826
L113.0361 84.4035
" />
<path d="M113.6409 84.2826
L113.7014 84.3431
" />
<path d="M113.7014 84.3431
L113.6409 84.4035
" />
<path d="M113.6409 84.4035
L113.5805 84.3431
" />
<path d="M113.5805 84.3431
L113.6409 84.2826
" />
<path d="M113.6409 84.2826
L113.6409 84.4035
" />
<path d="M115.0319 83.5569
L115.5157 83.5569
" />
<path d="M115.2133 83.1335
L115.2133 84.2221
" />
<path d="M115.2133 84.2221
L115.2738 84.3431
" />
<path d="M115.2738 84.3431
L115.3948 84.4035
" />
<path d="M115.3948 84.4035
L115.5157 84.4035
" />
<path d="M116.1205 84.4035
L115.9995 84.3431
" />
<path d="M115.9995 84.3431
L115.9390 84.2826
" />
<path d="M115.9390 84.2826
L115.8786 84.1616
" />
<path d="M115.8786 84.1616
L115.8786 83.7988
" />
<path d="M115.8786 83.7988
L115.9390 83.6778
" />
<path d="M115.9390 83.6778
L115.9995 83.6173
" />
<path d="M115.9995 83.6173
L116.1205 83.5569
" />
<path d="M116.1205 83.5569
L116.3019 83.5569
" />
<path d="M116.3019 83.5569
L116.4228 83.6173
" />
<path d="M116.4228 83.6173
L116.4833 83.6778
" />
<path d="M116.4833 83.6778
L116.5438 83.7988
" />
<path d="M116.5438 83.7988
L116.5438 84.1616
" />
<path d="M116.5438 84.1616
L116.4833 84.2826
" />
<path d="M116.4833 84.2826
L116.4228 84.3431
" />
<path d="M116.4228 84.3431
L116.3019 84.4035
" />
<path d="M116.3019 84.4035
L116.1205 84.4035
" />
<path d="M118.0556 84.4035
L118.0556 83.5569
" />
<path d="M118.0556 83.6778
L118.1161 83.6173
" />
<path d="M118.1161 83.6173
L118.2371 83.5569
" />
<path d="M118.2371 83.5569
L118.4185 83.5569
" />
<path d="M118.4185 83.5569
L118.5394 83.6173
" />
<path d="M118.5394 83.6173
L118.5999 83.7383
" />
<path d="M118.5999 83.7383
L118.5999 84.4035
" />
<path d="M118.5999 83.7383
L118.6604 83.6173
" />
<path d="M118.6604 83.6173
L118.7813 83.5569
" />
<path d="M118.7813 83.5569
L118.9628 83.5569
" />
<path d="M118.9628 83.5569
L119.0837 83.6173
" />
<path d="M119.0837 83.6173
L119.1442 83.7383
" />
<path d="M119.1442 83.7383
L119.1442 84.4035
" />
<path d="M120.2932 84.4035
L120.2932 83.7383
" />
<path d="M120.2932 83.7383
L120.2327 83.6173
" />
<path d="M120.2327 83.6173
L120.1118 83.5569
" />
<path d="M120.1118 83.5569
L119.8699 83.5569
" />
<path d="M119.8699 83.5569
L119.7489 83.6173
" />
<path d="M120.2932 84.3431
L120.1723 84.4035
" />
<path d="M120.1723 84.4035
L119.8699 84.4035
" />
<path d="M119.8699 84.4035
L119.7489 84.3431
" />
<path d="M119.7489 84.3431
L119.6885 84.2221
" />
<path d="M119.6885 84.2221
L119.6885 84.1011
" />
<path d="M119.6885 84.1011
L119.7489 83.9802
" />
<path d="M119.7489 83.9802
L119.8699 83.9197
" />
<path d="M119.8699 83.9197
L120.1723 83.9197
" />
<path d="M120.1723 83.9197
L120.2932 83.8592
" />
<path d="M120.8979 84.4035
L120.8979 83.1335
" />
<path d="M121.0189 83.9197
L121.3817 84.4035
" />
<path d="M121.3817 83.5569
L120.8979 84.0407
" />
<path d="M122.4098 84.3431
L122.2889 84.4035
" />
<path d="M122.2889 84.4035
L122.0470 84.4035
" />
<path d="M122.0470 84.4035
L121.9260 84.3431
" />
<path d="M121.9260 84.3431
L121.8656 84.2221
" />
<path d="M121.8656 84.2221
L121.8656 83.7383
" />
<path d="M121.8656 83.7383
L121.9260 83.6173
" />
<path d="M121.9260 83.6173
L122.0470 83.5569
" />
<path d="M122.0470 83.5569
L122.2889 83.5569
" />
<path d="M122.2889 83.5569
L122.4098 83.6173
" />
<path d="M122.4098 83.6173
L122.4703 83.7383
" />
<path d="M122.4703 83.7383
L122.4703 83.8592
" />
<path d="M122.4703 83.8592
L121.8656 83.9802
" />
<path d="M124.4660 84.3431
L124.3451 84.4035
" />
<path d="M124.3451 84.4035
L124.1032 84.4035
" />
<path d="M124.1032 84.4035
L123.9822 84.3431
" />
<path d="M123.9822 84.3431
L123.9218 84.2221
" />
<path d="M123.9218 84.2221
L123.9218 83.7383
" />
<path d="M123.9218 83.7383
L123.9822 83.6173
" />
<path d="M123.9822 83.6173
L124.1032 83.5569
" />
<path d="M124.1032 83.5569
L124.3451 83.5569
" />
<path d="M124.3451 83.5569
L124.4660 83.6173
" />
<path d="M124.4660 83.6173
L124.5265 83.7383
" />
<path d="M124.5265 83.7383
L124.5265 83.8592
" />
<path d="M124.5265 83.8592
L123.9218 83.9802
" />
<path d="M125.6151 84.4035
L125.6151 83.7383
" />
<path d="M125.6151 83.7383
L125.5546 83.6173
" />
<path d="M125.5546 83.6173
L125.4337 83.5569
" />
<path d="M125.4337 83.5569
L125.1918 83.5569
" />
<path d="M125.1918 83.5569
L125.0708 83.6173
" />
<path d="M125.6151 84.3431
L125.4942 84.4035
" />
<path d="M125.4942 84.4035
L125.1918 84.4035
" />
<path d="M125.1918 84.4035
L125.0708 84.3431
" />
<path d="M125.0708 84.3431
L125.0104 84.2221
" />
<path d="M125.0104 84.2221
L125.0104 84.1011
" />
<path d="M125.0104 84.1011
L125.0708 83.9802
" />
<path d="M125.0708 83.9802
L125.1918 83.9197
" />
<path d="M125.1918 83.9197
L125.4942 83.9197
" />
<path d="M125.4942 83.9197
L125.6151 83.8592
" />
<path d="M126.1594 84.3431
L126.2803 84.4035
" />
<path d="M126.2803 84.4035
L126.5222 84.4035
" />
<path d="M126.5222 84.4035
L126.6432 84.3431
" />
<path d="M126.6432 84.3431
L126.7036 84.2221
" />
<path d="M126.7036 84.2221
L126.7036 84.1616
" />
<path d="M126.7036 84.1616
L126.6432 84.0407
" />
<path d="M126.6432 84.0407
L126.5222 83.9802
" />
<path d="M126.5222 83.9802
L126.3408 83.9802
" />
<path d="M126.3408 83.9802
L126.2198 83.9197
" />
<path d="M126.2198 83.9197
L126.1594 83.7988
" />
<path d="M126.1594 83.7988
L126.1594 83.7383
" />
<path d="M126.1594 83.7383
L126.2198 83.6173
" />
<path d="M126.2198 83.6173
L126.3408 83.5569
" />
<path d="M126.3408 83.5569
L126.5222 83.5569
" />
<path d="M126.5222 83.5569
L126.6432 83.6173
" />
<path d="M127.1270 83.5569
L127.4294 84.4035
" />
<path d="M127.7317 83.5569
L127.4294 84.4035
" />
<path d="M127.4294 84.4035
L127.3084 84.7059
" />
<path d="M127.3084 84.7059
L127.2479 84.7664
" />
<path d="M127.2479 84.7664
L127.1270 84.8269
" />
<path d="M129.0017 83.5569
L129.4855 83.5569
" />
<path d="M129.1831 83.1335
L129.1831 84.2221
" />
<path d="M129.1831 84.2221
L129.2436 84.3431
" />
<path d="M129.2436 84.3431
L129.3646 84.4035
" />
<path d="M129.3646 84.4035
L129.4855 84.4035
" />
<path d="M130.0903 84.4035
L129.9693 84.3431
" />
<path d="M129.9693 84.3431
L129.9088 84.2826
" />
<path d="M129.9088 84.2826
L129.8484 84.1616
" />
<path d="M129.8484 84.1616
L129.8484 83.7988
" />
<path d="M129.8484 83.7988
L129.9088 83.6778
" />
<path d="M129.9088 83.6778
L129.9693 83.6173
" />
<path d="M129.9693 83.6173
L130.0903 83.5569
" />
<path d="M130.0903 83.5569
L130.2717 83.5569
" />
<path d="M130.2717 83.5569
L130.3926 83.6173
" />
<path d="M130.3926 83.6173
L130.4531 83.6778
" />
<path d="M130.4531 83.6778
L130.5136 83.7988
" />
<path d="M130.5136 83.7988
L130.5136 84.1616
" />
<path d="M130.5136 84.1616
L130.4531 84.2826
" />
<path d="M130.4531 84.2826
L130.3926 84.3431
" />
<path d="M130.3926 84.3431
L130.2717 84.4035
" />
<path d="M130.2717 84.4035
L130.0903 84.4035
" />
<path d="M132.5697 84.3431
L132.4488 84.4035
" />
<path d="M132.4488 84.4035
L132.2069 84.4035
" />
<path d="M132.2069 84.4035
L132.0859 84.3431
" />
<path d="M132.0859 84.3431
L132.0254 84.2826
" />
<path d="M132.0254 84.2826
L131.9650 84.1616
" />
<path d="M131.9650 84.1616
L131.9650 83.7988
" />
<path d="M131.9650 83.7988
L132.0254 83.6778
" />
<path d="M132.0254 83.6778
L132.0859 83.6173
" />
<path d="M132.0859 83.6173
L132.2069 83.5569
" />
<path d="M132.2069 83.5569
L132.4488 83.5569
" />
<path d="M132.4488 83.5569
L132.5697 83.6173
" />
<path d="M133.1140 84.4035
L133.1140 83.1335
" />
<path d="M133.6583 84.4035
L133.6583 83.7383
" />
<path d="M133.6583 83.7383
L133.5978 83.6173
" />
<path d="M133.5978 83.6173
L133.4769 83.5569
" />
<path d="M133.4769 83.5569
L133.2955 83.5569
" />
<path d="M133.2955 83.5569
L133.1745 83.6173
" />
<path d="M133.1745 83.6173
L133.1140 83.6778
" />
<path d="M134.8073 84.4035
L134.8073 83.7383
" />
<path d="M134.8073 83.7383
L134.7468 83.6173
" />
<path d="M134.7468 83.6173
L134.6259 83.5569
" />
<path d="M134.6259 83.5569
L134.3840 83.5569
" />
<path d="M134.3840 83.5569
L134.2630 83.6173
" />
<path d="M134.8073 84.3431
L134.6864 84.4035
" />
<path d="M134.6864 84.4035
L134.3840 84.4035
" />
<path d="M134.3840 84.4035
L134.2630 84.3431
" />
<path d="M134.2630 84.3431
L134.2026 84.2221
" />
<path d="M134.2026 84.2221
L134.2026 84.1011
" />
<path d="M134.2026 84.1011
L134.2630 83.9802
" />
<path d="M134.2630 83.9802
L134.3840 83.9197
" />
<path d="M134.3840 83.9197
L134.6864 83.9197
" />
<path d="M134.6864 83.9197
L134.8073 83.8592
" />
<path d="M135.4120 83.5569
L135.4120 84.4035
" />
<path d="M135.4120 83.6778
L135.4725 83.6173
" />
<path d="M135.4725 83.6173
L135.5935 83.5569
" />
<path d="M135.5935 83.5569
L135.7749 83.5569
" />
<path d="M135.7749 83.5569
L135.8958 83.6173
" />
<path d="M135.8958 83.6173
L135.9563 83.7383
" />
<path d="M135.9563 83.7383
L135.9563 84.4035
" />
<path d="M137.1053 83.5569
L137.1053 84.5850
" />
<path d="M137.1053 84.5850
L137.0448 84.7059
" />
<path d="M137.0448 84.7059
L136.9844 84.7664
" />
<path d="M136.9844 84.7664
L136.8634 84.8269
" />
<path d="M136.8634 84.8269
L136.6820 84.8269
" />
<path d="M136.6820 84.8269
L136.5610 84.7664
" />
<path d="M137.1053 84.3431
L136.9844 84.4035
" />
<path d="M136.9844 84.4035
L136.7425 84.4035
" />
<path d="M136.7425 84.4035
L136.6215 84.3431
" />
<path d="M136.6215 84.3431
L136.5610 84.2826
" />
<path d="M136.5610 84.2826
L136.5006 84.1616
" />
<path d="M136.5006 84.1616
L136.5006 83.7988
" />
<path d="M136.5006 83.7988
L136.5610 83.6778
" />
<path d="M136.5610 83.6778
L136.6215 83.6173
" />
<path d="M136.6215 83.6173
L136.7425 83.5569
" />
<path d="M136.7425 83.5569
L136.9844 83.5569
" />
<path d="M136.9844 83.5569
L137.1053 83.6173
" />
<path d="M138.1938 84.3431
L138.0729 84.4035
" />
<path d="M138.0729 84.4035
L137.8310 84.4035
" />
<path d="M137.8310 84.4035
L137.7100 84.3431
" />
<path d="M137.7100 84.3431
L137.6496 84.2221
" />
<path d="M137.6496 84.2221
L137.6496 83.7383
" />
<path d="M137.6496 83.7383
L137.7100 83.6173
" />
<path d="M137.7100 83.6173
L137.8310 83.5569
" />
<path d="M137.8310 83.5569
L138.0729 83.5569
" />
<path d="M138.0729 83.5569
L138.1938 83.6173
" />
<path d="M138.1938 83.6173
L138.2543 83.7383
" />
<path d="M138.2543 83.7383
L138.2543 83.8592
" />
<path d="M138.2543 83.8592
L137.6496 83.9802
" />
</g><path d="M77.4700 58.4200
L77.4700 74.9300
" />
<path d="M77.4700 58.4200
L91.4400 58.4200
" />
<path d="M101.6000 58.4200
L101.6000 54.6100
" />
<path d="M101.6000 54.6100
L115.5700 54.6100
" />
<path d="M95.2500 54.6100
L101.6000 54.6100
" />
<path d="M99.0600 58.4200
L101.6000 58.4200
" />
<path d="M68.5800 58.4200
L77.4700 58.4200
" />
</g>
<g style="fill:#000000; fill-opacity:1.0000; 
stroke:#000000; stroke-width:0.1524; stroke-opacity:1; 
stroke-linecap:round; stroke-linejoin:round;">
<circle cx="77.4700" cy="58.4200" r="0.4572" /> 
<circle cx="101.6000" cy="54.6100" r="0.4572" /> 
</g> 
</svg>
