<?xml version="1.0" standalone="no"?>
 <!DOCTYPE svg PUBLIC "-//W3C//DTD SVG 1.1//EN" 
 "http://www.w3.org/Graphics/SVG/1.1/DTD/svg11.dtd"> 
<svg
  xmlns:svg="http://www.w3.org/2000/svg"
  xmlns="http://www.w3.org/2000/svg"
  xmlns:xlink="http://www.w3.org/1999/xlink"
  version="1.1"
  width="297.0022mm" height="210.0072mm" viewBox="0.0000 0.0000 297.0022 210.0072">
<title>SVG Image created as miniorgan-output.svg date 2025/02/13 15:39:40 </title>
  <desc>Image generated by Eeschema-SVG </desc>
<g style="fill:#000000; fill-opacity:1.0000;stroke:#000000; stroke-opacity:1.0000;
stroke-linecap:round; stroke-linejoin:round;"
 transform="translate(0 0) scale(1 1)">
</g>
<g style="fill:#000000; fill-opacity:1.0000; 
stroke:#000000; stroke-width:0.2540; stroke-opacity:1; 
stroke-linecap:round; stroke-linejoin:round;">
<rect x="163.830000" y="81.280000" width="1.270000" height="2.540000" rx="0.000000" />
<path style="fill:none; 
stroke:#000000; stroke-width:0.2540; stroke-opacity:1; 
stroke-linecap:round; stroke-linejoin:round;fill:none"
d="M 158.7500,83.8200
158.1150,83.1850
157.4800,83.8200
156.2100,83.8200
" /> 
<path style="fill:none; 
stroke:#000000; stroke-width:0.2540; stroke-opacity:1; 
stroke-linecap:round; stroke-linejoin:round;fill:none"
d="M 160.6550,83.8200
160.0200,83.1850
159.3850,83.8200
159.3850,86.3600
156.2100,86.3600
" /> 
<path style="fill:none; 
stroke:#000000; stroke-width:0.2540; stroke-opacity:1; 
stroke-linecap:round; stroke-linejoin:round;fill:none"
d="M 156.2100,88.9000
161.2900,88.9000
161.2900,83.8200
161.9250,83.1850
162.5600,83.8200
" /> 
</g>
<g style="fill:none; 
stroke:#000000; stroke-width:0.2540; stroke-opacity:1; 
stroke-linecap:round; stroke-linejoin:round;">
<rect x="156.210000" y="81.280000" width="7.620000" height="8.890000" rx="0.000000" />
</g>
<g style="fill:none; 
stroke:#000000; stroke-width:0.1524; stroke-opacity:1; 
stroke-linecap:round; stroke-linejoin:round;">
<path d="M156.2100 86.3600
L153.6700 86.3600
" />
<text x="154.9400" y="86.1060"
textLength="1.4732" font-size="1.6933" lengthAdjust="spacingAndGlyphs"
text-anchor="middle" opacity="0" stroke-opacity="0">R</text>
<g class="stroked-text"><desc>R</desc>
<path d="M155.3330 85.9425
L154.9097 85.3378
" />
<path d="M154.6073 85.9425
L154.6073 84.6725
" />
<path d="M154.6073 84.6725
L155.0911 84.6725
" />
<path d="M155.0911 84.6725
L155.2121 84.7330
" />
<path d="M155.2121 84.7330
L155.2726 84.7935
" />
<path d="M155.2726 84.7935
L155.3330 84.9144
" />
<path d="M155.3330 84.9144
L155.3330 85.0959
" />
<path d="M155.3330 85.0959
L155.2726 85.2168
" />
<path d="M155.2726 85.2168
L155.2121 85.2773
" />
<path d="M155.2121 85.2773
L155.0911 85.3378
" />
<path d="M155.0911 85.3378
L154.6073 85.3378
" />
</g><path d="M156.2100 88.9000
L153.6700 88.9000
" />
<text x="154.9400" y="88.6460"
textLength="1.4127" font-size="1.6933" lengthAdjust="spacingAndGlyphs"
text-anchor="middle" opacity="0" stroke-opacity="0">S</text>
<g class="stroked-text"><desc>S</desc>
<path d="M154.5772 88.4221
L154.7586 88.4825
" />
<path d="M154.7586 88.4825
L155.0610 88.4825
" />
<path d="M155.0610 88.4825
L155.1819 88.4221
" />
<path d="M155.1819 88.4221
L155.2424 88.3616
" />
<path d="M155.2424 88.3616
L155.3029 88.2406
" />
<path d="M155.3029 88.2406
L155.3029 88.1197
" />
<path d="M155.3029 88.1197
L155.2424 87.9987
" />
<path d="M155.2424 87.9987
L155.1819 87.9382
" />
<path d="M155.1819 87.9382
L155.0610 87.8778
" />
<path d="M155.0610 87.8778
L154.8191 87.8173
" />
<path d="M154.8191 87.8173
L154.6981 87.7568
" />
<path d="M154.6981 87.7568
L154.6376 87.6963
" />
<path d="M154.6376 87.6963
L154.5772 87.5754
" />
<path d="M154.5772 87.5754
L154.5772 87.4544
" />
<path d="M154.5772 87.4544
L154.6376 87.3335
" />
<path d="M154.6376 87.3335
L154.6981 87.2730
" />
<path d="M154.6981 87.2730
L154.8191 87.2125
" />
<path d="M154.8191 87.2125
L155.1214 87.2125
" />
<path d="M155.1214 87.2125
L155.3029 87.2730
" />
</g><path d="M156.2100 83.8200
L153.6700 83.8200
" />
<text x="154.9400" y="83.5660"
textLength="1.1708" font-size="1.6933" lengthAdjust="spacingAndGlyphs"
text-anchor="middle" opacity="0" stroke-opacity="0">T</text>
<g class="stroked-text"><desc>T</desc>
<path d="M154.5771 82.1325
L155.3028 82.1325
" />
<path d="M154.9400 83.4025
L154.9400 82.1325
" />
</g><text x="167.5697" y="85.0898"
textLength="2.3803" font-size="1.6933" lengthAdjust="spacingAndGlyphs"
text-anchor="middle" opacity="0" stroke-opacity="0">J3</text>
<g class="stroked-text"><desc>J3</desc>
<path d="M167.1464 83.7643
L167.1464 84.6715
" />
<path d="M167.1464 84.6715
L167.0859 84.8529
" />
<path d="M167.0859 84.8529
L166.9650 84.9739
" />
<path d="M166.9650 84.9739
L166.7835 85.0343
" />
<path d="M166.7835 85.0343
L166.6626 85.0343
" />
<path d="M167.6302 83.7643
L168.4164 83.7643
" />
<path d="M168.4164 83.7643
L167.9930 84.2481
" />
<path d="M167.9930 84.2481
L168.1745 84.2481
" />
<path d="M168.1745 84.2481
L168.2954 84.3086
" />
<path d="M168.2954 84.3086
L168.3559 84.3691
" />
<path d="M168.3559 84.3691
L168.4164 84.4900
" />
<path d="M168.4164 84.4900
L168.4164 84.7924
" />
<path d="M168.4164 84.7924
L168.3559 84.9134
" />
<path d="M168.3559 84.9134
L168.2954 84.9739
" />
<path d="M168.2954 84.9739
L168.1745 85.0343
" />
<path d="M168.1745 85.0343
L167.8116 85.0343
" />
<path d="M167.8116 85.0343
L167.6907 84.9739
" />
<path d="M167.6907 84.9739
L167.6302 84.9134
" />
</g><text x="171.7728" y="87.6298"
textLength="10.7864" font-size="1.6933" lengthAdjust="spacingAndGlyphs"
text-anchor="middle" opacity="0" stroke-opacity="0">AudioJack3</text>
<g class="stroked-text"><desc>AudioJack3</desc>
<path d="M166.7231 87.2115
L167.3278 87.2115
" />
<path d="M166.6021 87.5743
L167.0254 86.3043
" />
<path d="M167.0254 86.3043
L167.4488 87.5743
" />
<path d="M168.4164 86.7277
L168.4164 87.5743
" />
<path d="M167.8721 86.7277
L167.8721 87.3929
" />
<path d="M167.8721 87.3929
L167.9326 87.5139
" />
<path d="M167.9326 87.5139
L168.0536 87.5743
" />
<path d="M168.0536 87.5743
L168.2350 87.5743
" />
<path d="M168.2350 87.5743
L168.3559 87.5139
" />
<path d="M168.3559 87.5139
L168.4164 87.4534
" />
<path d="M169.5654 87.5743
L169.5654 86.3043
" />
<path d="M169.5654 87.5139
L169.4445 87.5743
" />
<path d="M169.4445 87.5743
L169.2026 87.5743
" />
<path d="M169.2026 87.5743
L169.0816 87.5139
" />
<path d="M169.0816 87.5139
L169.0211 87.4534
" />
<path d="M169.0211 87.4534
L168.9607 87.3324
" />
<path d="M168.9607 87.3324
L168.9607 86.9696
" />
<path d="M168.9607 86.9696
L169.0211 86.8486
" />
<path d="M169.0211 86.8486
L169.0816 86.7881
" />
<path d="M169.0816 86.7881
L169.2026 86.7277
" />
<path d="M169.2026 86.7277
L169.4445 86.7277
" />
<path d="M169.4445 86.7277
L169.5654 86.7881
" />
<path d="M170.1701 87.5743
L170.1701 86.7277
" />
<path d="M170.1701 86.3043
L170.1097 86.3648
" />
<path d="M170.1097 86.3648
L170.1701 86.4253
" />
<path d="M170.1701 86.4253
L170.2306 86.3648
" />
<path d="M170.2306 86.3648
L170.1701 86.3043
" />
<path d="M170.1701 86.3043
L170.1701 86.4253
" />
<path d="M170.9564 87.5743
L170.8354 87.5139
" />
<path d="M170.8354 87.5139
L170.7749 87.4534
" />
<path d="M170.7749 87.4534
L170.7145 87.3324
" />
<path d="M170.7145 87.3324
L170.7145 86.9696
" />
<path d="M170.7145 86.9696
L170.7749 86.8486
" />
<path d="M170.7749 86.8486
L170.8354 86.7881
" />
<path d="M170.8354 86.7881
L170.9564 86.7277
" />
<path d="M170.9564 86.7277
L171.1378 86.7277
" />
<path d="M171.1378 86.7277
L171.2587 86.7881
" />
<path d="M171.2587 86.7881
L171.3192 86.8486
" />
<path d="M171.3192 86.8486
L171.3797 86.9696
" />
<path d="M171.3797 86.9696
L171.3797 87.3324
" />
<path d="M171.3797 87.3324
L171.3192 87.4534
" />
<path d="M171.3192 87.4534
L171.2587 87.5139
" />
<path d="M171.2587 87.5139
L171.1378 87.5743
" />
<path d="M171.1378 87.5743
L170.9564 87.5743
" />
<path d="M172.2868 86.3043
L172.2868 87.2115
" />
<path d="M172.2868 87.2115
L172.2263 87.3929
" />
<path d="M172.2263 87.3929
L172.1054 87.5139
" />
<path d="M172.1054 87.5139
L171.9239 87.5743
" />
<path d="M171.9239 87.5743
L171.8030 87.5743
" />
<path d="M173.4358 87.5743
L173.4358 86.9091
" />
<path d="M173.4358 86.9091
L173.3753 86.7881
" />
<path d="M173.3753 86.7881
L173.2544 86.7277
" />
<path d="M173.2544 86.7277
L173.0125 86.7277
" />
<path d="M173.0125 86.7277
L172.8915 86.7881
" />
<path d="M173.4358 87.5139
L173.3149 87.5743
" />
<path d="M173.3149 87.5743
L173.0125 87.5743
" />
<path d="M173.0125 87.5743
L172.8915 87.5139
" />
<path d="M172.8915 87.5139
L172.8311 87.3929
" />
<path d="M172.8311 87.3929
L172.8311 87.2719
" />
<path d="M172.8311 87.2719
L172.8915 87.1510
" />
<path d="M172.8915 87.1510
L173.0125 87.0905
" />
<path d="M173.0125 87.0905
L173.3149 87.0905
" />
<path d="M173.3149 87.0905
L173.4358 87.0300
" />
<path d="M174.5848 87.5139
L174.4639 87.5743
" />
<path d="M174.4639 87.5743
L174.2220 87.5743
" />
<path d="M174.2220 87.5743
L174.1010 87.5139
" />
<path d="M174.1010 87.5139
L174.0405 87.4534
" />
<path d="M174.0405 87.4534
L173.9801 87.3324
" />
<path d="M173.9801 87.3324
L173.9801 86.9696
" />
<path d="M173.9801 86.9696
L174.0405 86.8486
" />
<path d="M174.0405 86.8486
L174.1010 86.7881
" />
<path d="M174.1010 86.7881
L174.2220 86.7277
" />
<path d="M174.2220 86.7277
L174.4639 86.7277
" />
<path d="M174.4639 86.7277
L174.5848 86.7881
" />
<path d="M175.1291 87.5743
L175.1291 86.3043
" />
<path d="M175.2501 87.0905
L175.6129 87.5743
" />
<path d="M175.6129 86.7277
L175.1291 87.2115
" />
<path d="M176.0363 86.3043
L176.8225 86.3043
" />
<path d="M176.8225 86.3043
L176.3991 86.7881
" />
<path d="M176.3991 86.7881
L176.5806 86.7881
" />
<path d="M176.5806 86.7881
L176.7015 86.8486
" />
<path d="M176.7015 86.8486
L176.7620 86.9091
" />
<path d="M176.7620 86.9091
L176.8225 87.0300
" />
<path d="M176.8225 87.0300
L176.8225 87.3324
" />
<path d="M176.8225 87.3324
L176.7620 87.4534
" />
<path d="M176.7620 87.4534
L176.7015 87.5139
" />
<path d="M176.7015 87.5139
L176.5806 87.5743
" />
<path d="M176.5806 87.5743
L176.2177 87.5743
" />
<path d="M176.2177 87.5743
L176.0968 87.5139
" />
<path d="M176.0968 87.5139
L176.0363 87.4534
" />
</g></g>
<g style="fill:none; 
stroke:#000000; stroke-width:0.4572; stroke-opacity:1; 
stroke-linecap:round; stroke-linejoin:round;">
<path d="M153.6699 81.1530
L165.2270 90.2970
" />
<path d="M165.2270 81.1530
L153.6699 90.2970
" />
<path style="fill:none; 
stroke:#000000; stroke-width:0.1524; stroke-opacity:1; 
stroke-linecap:round; stroke-linejoin:round;fill:none"
d="M 119.3800,95.2500
119.3800,96.2660
" /> 
<path style="fill:#000000; fill-opacity:1.0000; 
stroke:#000000; stroke-width:0.1524; stroke-opacity:1; 
stroke-linecap:round; stroke-linejoin:round;fill-rule:evenodd;"
d="M 119.3800,96.6470
119.8880,95.5040
118.8720,95.5040
Z" /> 
</g>
<g style="fill:none; 
stroke:#000000; stroke-width:0.2540; stroke-opacity:1; 
stroke-linecap:round; stroke-linejoin:round;">
<rect x="116.840000" y="96.774000" width="5.080000" height="2.032000" rx="0.000000" />
</g>
<g style="fill:none; 
stroke:#000000; stroke-width:0.1524; stroke-opacity:1; 
stroke-linecap:round; stroke-linejoin:round;">
<path d="M121.9200 97.7900
L123.1900 97.7900
" />
<text x="122.5550" y="97.5360"
textLength="1.4127" font-size="1.6933" lengthAdjust="spacingAndGlyphs"
text-anchor="middle" opacity="0" stroke-opacity="0">1</text>
<g class="stroked-text"><desc>1</desc>
<path d="M122.9179 97.3725
L122.1922 97.3725
" />
<path d="M122.5550 97.3725
L122.5550 96.1025
" />
<path d="M122.5550 96.1025
L122.4341 96.2840
" />
<path d="M122.4341 96.2840
L122.3131 96.4049
" />
<path d="M122.3131 96.4049
L122.1922 96.4654
" />
</g><path d="M119.3800 95.2500
L119.3800 93.9800
" />
<g transform="rotate(-90.000000 119.1260 94.6150)">
<text x="119.1260" y="94.6150"
textLength="1.4127" font-size="1.6933" lengthAdjust="spacingAndGlyphs"
text-anchor="middle" opacity="0" stroke-opacity="0">2</text>
</g>
<g class="stroked-text"><desc>2</desc>
<path d="M117.8135 94.9777
L117.7530 94.9173
" />
<path d="M117.7530 94.9173
L117.6925 94.7963
" />
<path d="M117.6925 94.7963
L117.6925 94.4939
" />
<path d="M117.6925 94.4939
L117.7530 94.3730
" />
<path d="M117.7530 94.3730
L117.8135 94.3125
" />
<path d="M117.8135 94.3125
L117.9344 94.2520
" />
<path d="M117.9344 94.2520
L118.0554 94.2520
" />
<path d="M118.0554 94.2520
L118.2368 94.3125
" />
<path d="M118.2368 94.3125
L118.9625 95.0382
" />
<path d="M118.9625 95.0382
L118.9625 94.2520
" />
</g><path d="M116.8400 97.7900
L115.5700 97.7900
" />
<text x="116.2050" y="97.5360"
textLength="1.4127" font-size="1.6933" lengthAdjust="spacingAndGlyphs"
text-anchor="middle" opacity="0" stroke-opacity="0">3</text>
<g class="stroked-text"><desc>3</desc>
<path d="M115.7817 96.1025
L116.5679 96.1025
" />
<path d="M116.5679 96.1025
L116.1445 96.5863
" />
<path d="M116.1445 96.5863
L116.3260 96.5863
" />
<path d="M116.3260 96.5863
L116.4469 96.6468
" />
<path d="M116.4469 96.6468
L116.5074 96.7073
" />
<path d="M116.5074 96.7073
L116.5679 96.8282
" />
<path d="M116.5679 96.8282
L116.5679 97.1306
" />
<path d="M116.5679 97.1306
L116.5074 97.2516
" />
<path d="M116.5074 97.2516
L116.4469 97.3121
" />
<path d="M116.4469 97.3121
L116.3260 97.3725
" />
<path d="M116.3260 97.3725
L115.9631 97.3725
" />
<path d="M115.9631 97.3725
L115.8422 97.3121
" />
<path d="M115.8422 97.3121
L115.7817 97.2516
" />
</g><text x="119.3800" y="102.2349"
textLength="4.9808" font-size="1.6933" lengthAdjust="spacingAndGlyphs"
text-anchor="middle" opacity="0" stroke-opacity="0">RV17</text>
<g class="stroked-text"><desc>RV17</desc>
<path d="M118.0192 102.1794
L117.5959 101.5747
" />
<path d="M117.2935 102.1794
L117.2935 100.9094
" />
<path d="M117.2935 100.9094
L117.7773 100.9094
" />
<path d="M117.7773 100.9094
L117.8983 100.9699
" />
<path d="M117.8983 100.9699
L117.9588 101.0304
" />
<path d="M117.9588 101.0304
L118.0192 101.1513
" />
<path d="M118.0192 101.1513
L118.0192 101.3328
" />
<path d="M118.0192 101.3328
L117.9588 101.4537
" />
<path d="M117.9588 101.4537
L117.8983 101.5142
" />
<path d="M117.8983 101.5142
L117.7773 101.5747
" />
<path d="M117.7773 101.5747
L117.2935 101.5747
" />
<path d="M118.3821 100.9094
L118.8054 102.1794
" />
<path d="M118.8054 102.1794
L119.2288 100.9094
" />
<path d="M120.3174 102.1794
L119.5917 102.1794
" />
<path d="M119.9545 102.1794
L119.9545 100.9094
" />
<path d="M119.9545 100.9094
L119.8336 101.0909
" />
<path d="M119.8336 101.0909
L119.7126 101.2118
" />
<path d="M119.7126 101.2118
L119.5917 101.2723
" />
<path d="M120.7407 100.9094
L121.5873 100.9094
" />
<path d="M121.5873 100.9094
L121.0431 102.1794
" />
</g><text x="119.3800" y="104.7749"
textLength="6.1903" font-size="1.6933" lengthAdjust="spacingAndGlyphs"
text-anchor="middle" opacity="0" stroke-opacity="0">A100K</text>
<g class="stroked-text"><desc>A100K</desc>
<path d="M116.6284 104.3566
L117.2331 104.3566
" />
<path d="M116.5074 104.7194
L116.9307 103.4494
" />
<path d="M116.9307 103.4494
L117.3541 104.7194
" />
<path d="M118.4427 104.7194
L117.7170 104.7194
" />
<path d="M118.0798 104.7194
L118.0798 103.4494
" />
<path d="M118.0798 103.4494
L117.9589 103.6309
" />
<path d="M117.9589 103.6309
L117.8379 103.7518
" />
<path d="M117.8379 103.7518
L117.7170 103.8123
" />
<path d="M119.2288 103.4494
L119.3498 103.4494
" />
<path d="M119.3498 103.4494
L119.4707 103.5099
" />
<path d="M119.4707 103.5099
L119.5312 103.5704
" />
<path d="M119.5312 103.5704
L119.5917 103.6913
" />
<path d="M119.5917 103.6913
L119.6522 103.9332
" />
<path d="M119.6522 103.9332
L119.6522 104.2356
" />
<path d="M119.6522 104.2356
L119.5917 104.4775
" />
<path d="M119.5917 104.4775
L119.5312 104.5985
" />
<path d="M119.5312 104.5985
L119.4707 104.6590
" />
<path d="M119.4707 104.6590
L119.3498 104.7194
" />
<path d="M119.3498 104.7194
L119.2288 104.7194
" />
<path d="M119.2288 104.7194
L119.1079 104.6590
" />
<path d="M119.1079 104.6590
L119.0474 104.5985
" />
<path d="M119.0474 104.5985
L118.9869 104.4775
" />
<path d="M118.9869 104.4775
L118.9265 104.2356
" />
<path d="M118.9265 104.2356
L118.9265 103.9332
" />
<path d="M118.9265 103.9332
L118.9869 103.6913
" />
<path d="M118.9869 103.6913
L119.0474 103.5704
" />
<path d="M119.0474 103.5704
L119.1079 103.5099
" />
<path d="M119.1079 103.5099
L119.2288 103.4494
" />
<path d="M120.4383 103.4494
L120.5593 103.4494
" />
<path d="M120.5593 103.4494
L120.6802 103.5099
" />
<path d="M120.6802 103.5099
L120.7407 103.5704
" />
<path d="M120.7407 103.5704
L120.8012 103.6913
" />
<path d="M120.8012 103.6913
L120.8617 103.9332
" />
<path d="M120.8617 103.9332
L120.8617 104.2356
" />
<path d="M120.8617 104.2356
L120.8012 104.4775
" />
<path d="M120.8012 104.4775
L120.7407 104.5985
" />
<path d="M120.7407 104.5985
L120.6802 104.6590
" />
<path d="M120.6802 104.6590
L120.5593 104.7194
" />
<path d="M120.5593 104.7194
L120.4383 104.7194
" />
<path d="M120.4383 104.7194
L120.3174 104.6590
" />
<path d="M120.3174 104.6590
L120.2569 104.5985
" />
<path d="M120.2569 104.5985
L120.1964 104.4775
" />
<path d="M120.1964 104.4775
L120.1360 104.2356
" />
<path d="M120.1360 104.2356
L120.1360 103.9332
" />
<path d="M120.1360 103.9332
L120.1964 103.6913
" />
<path d="M120.1964 103.6913
L120.2569 103.5704
" />
<path d="M120.2569 103.5704
L120.3174 103.5099
" />
<path d="M120.3174 103.5099
L120.4383 103.4494
" />
<path d="M121.4059 104.7194
L121.4059 103.4494
" />
<path d="M122.1316 104.7194
L121.5874 103.9937
" />
<path d="M122.1316 103.4494
L121.4059 104.1751
" />
</g></g>
<g style="fill:none; 
stroke:#000000; stroke-width:0.4572; stroke-opacity:1; 
stroke-linecap:round; stroke-linejoin:round;">
<path d="M115.5699 93.9799
L123.1901 98.9330
" />
<path d="M123.1901 93.9799
L115.5699 98.9330
" />
<path style="fill:none; 
stroke:#000000; stroke-width:0.3302; stroke-opacity:1; 
stroke-linecap:round; stroke-linejoin:round;fill:none"
d="M 105.9180,80.2640
105.9180,77.2160
" /> 
<path style="fill:none; 
stroke:#000000; stroke-width:0.3048; stroke-opacity:1; 
stroke-linecap:round; stroke-linejoin:round;fill:none"
d="M 104.9020,80.2640
104.9020,77.2160
" /> 
</g>
<g style="fill:none; 
stroke:#000000; stroke-width:0.1524; stroke-opacity:1; 
stroke-linecap:round; stroke-linejoin:round;">
<path d="M104.9020 78.7400
L102.8700 78.7400
" />
<path d="M105.9180 78.7400
L107.9500 78.7400
" />
<text x="105.4163" y="73.0249"
textLength="3.8922" font-size="1.6933" lengthAdjust="spacingAndGlyphs"
text-anchor="middle" opacity="0" stroke-opacity="0">C18</text>
<g class="stroked-text"><desc>C18</desc>
<path d="M104.5998 72.8485
L104.5394 72.9090
" />
<path d="M104.5394 72.9090
L104.3579 72.9694
" />
<path d="M104.3579 72.9694
L104.2370 72.9694
" />
<path d="M104.2370 72.9694
L104.0556 72.9090
" />
<path d="M104.0556 72.9090
L103.9346 72.7880
" />
<path d="M103.9346 72.7880
L103.8741 72.6670
" />
<path d="M103.8741 72.6670
L103.8137 72.4251
" />
<path d="M103.8137 72.4251
L103.8137 72.2437
" />
<path d="M103.8137 72.2437
L103.8741 72.0018
" />
<path d="M103.8741 72.0018
L103.9346 71.8809
" />
<path d="M103.9346 71.8809
L104.0556 71.7599
" />
<path d="M104.0556 71.7599
L104.2370 71.6994
" />
<path d="M104.2370 71.6994
L104.3579 71.6994
" />
<path d="M104.3579 71.6994
L104.5394 71.7599
" />
<path d="M104.5394 71.7599
L104.5998 71.8204
" />
<path d="M105.8094 72.9694
L105.0837 72.9694
" />
<path d="M105.4465 72.9694
L105.4465 71.6994
" />
<path d="M105.4465 71.6994
L105.3256 71.8809
" />
<path d="M105.3256 71.8809
L105.2046 72.0018
" />
<path d="M105.2046 72.0018
L105.0837 72.0623
" />
<path d="M106.5351 72.2437
L106.4141 72.1832
" />
<path d="M106.4141 72.1832
L106.3536 72.1228
" />
<path d="M106.3536 72.1228
L106.2932 72.0018
" />
<path d="M106.2932 72.0018
L106.2932 71.9413
" />
<path d="M106.2932 71.9413
L106.3536 71.8204
" />
<path d="M106.3536 71.8204
L106.4141 71.7599
" />
<path d="M106.4141 71.7599
L106.5351 71.6994
" />
<path d="M106.5351 71.6994
L106.7770 71.6994
" />
<path d="M106.7770 71.6994
L106.8979 71.7599
" />
<path d="M106.8979 71.7599
L106.9584 71.8204
" />
<path d="M106.9584 71.8204
L107.0189 71.9413
" />
<path d="M107.0189 71.9413
L107.0189 72.0018
" />
<path d="M107.0189 72.0018
L106.9584 72.1228
" />
<path d="M106.9584 72.1228
L106.8979 72.1832
" />
<path d="M106.8979 72.1832
L106.7770 72.2437
" />
<path d="M106.7770 72.2437
L106.5351 72.2437
" />
<path d="M106.5351 72.2437
L106.4141 72.3042
" />
<path d="M106.4141 72.3042
L106.3536 72.3647
" />
<path d="M106.3536 72.3647
L106.2932 72.4856
" />
<path d="M106.2932 72.4856
L106.2932 72.7275
" />
<path d="M106.2932 72.7275
L106.3536 72.8485
" />
<path d="M106.3536 72.8485
L106.4141 72.9090
" />
<path d="M106.4141 72.9090
L106.5351 72.9694
" />
<path d="M106.5351 72.9694
L106.7770 72.9694
" />
<path d="M106.7770 72.9694
L106.8979 72.9090
" />
<path d="M106.8979 72.9090
L106.9584 72.8485
" />
<path d="M106.9584 72.8485
L107.0189 72.7275
" />
<path d="M107.0189 72.7275
L107.0189 72.4856
" />
<path d="M107.0189 72.4856
L106.9584 72.3647
" />
<path d="M106.9584 72.3647
L106.8979 72.3042
" />
<path d="M106.8979 72.3042
L106.7770 72.2437
" />
</g><text x="105.4163" y="75.5649"
textLength="4.8598" font-size="1.6933" lengthAdjust="spacingAndGlyphs"
text-anchor="middle" opacity="0" stroke-opacity="0">10uF</text>
<g class="stroked-text"><desc>10uF</desc>
<path d="M104.0556 75.5094
L103.3299 75.5094
" />
<path d="M103.6927 75.5094
L103.6927 74.2394
" />
<path d="M103.6927 74.2394
L103.5718 74.4209
" />
<path d="M103.5718 74.4209
L103.4508 74.5418
" />
<path d="M103.4508 74.5418
L103.3299 74.6023
" />
<path d="M104.8417 74.2394
L104.9627 74.2394
" />
<path d="M104.9627 74.2394
L105.0836 74.2999
" />
<path d="M105.0836 74.2999
L105.1441 74.3604
" />
<path d="M105.1441 74.3604
L105.2046 74.4813
" />
<path d="M105.2046 74.4813
L105.2651 74.7232
" />
<path d="M105.2651 74.7232
L105.2651 75.0256
" />
<path d="M105.2651 75.0256
L105.2046 75.2675
" />
<path d="M105.2046 75.2675
L105.1441 75.3885
" />
<path d="M105.1441 75.3885
L105.0836 75.4490
" />
<path d="M105.0836 75.4490
L104.9627 75.5094
" />
<path d="M104.9627 75.5094
L104.8417 75.5094
" />
<path d="M104.8417 75.5094
L104.7208 75.4490
" />
<path d="M104.7208 75.4490
L104.6603 75.3885
" />
<path d="M104.6603 75.3885
L104.5998 75.2675
" />
<path d="M104.5998 75.2675
L104.5394 75.0256
" />
<path d="M104.5394 75.0256
L104.5394 74.7232
" />
<path d="M104.5394 74.7232
L104.5998 74.4813
" />
<path d="M104.5998 74.4813
L104.6603 74.3604
" />
<path d="M104.6603 74.3604
L104.7208 74.2999
" />
<path d="M104.7208 74.2999
L104.8417 74.2394
" />
<path d="M106.3536 74.6628
L106.3536 75.5094
" />
<path d="M105.8093 74.6628
L105.8093 75.3280
" />
<path d="M105.8093 75.3280
L105.8698 75.4490
" />
<path d="M105.8698 75.4490
L105.9908 75.5094
" />
<path d="M105.9908 75.5094
L106.1722 75.5094
" />
<path d="M106.1722 75.5094
L106.2931 75.4490
" />
<path d="M106.2931 75.4490
L106.3536 75.3885
" />
<path d="M107.3817 74.8442
L106.9583 74.8442
" />
<path d="M106.9583 75.5094
L106.9583 74.2394
" />
<path d="M106.9583 74.2394
L107.5631 74.2394
" />
</g><path style="fill:none; 
stroke:#000000; stroke-width:0.3302; stroke-opacity:1; 
stroke-linecap:round; stroke-linejoin:round;fill:none"
d="M 105.9180,99.3140
105.9180,96.2660
" /> 
<path style="fill:none; 
stroke:#000000; stroke-width:0.3048; stroke-opacity:1; 
stroke-linecap:round; stroke-linejoin:round;fill:none"
d="M 104.9020,99.3140
104.9020,96.2660
" /> 
</g>
<g style="fill:none; 
stroke:#000000; stroke-width:0.1524; stroke-opacity:1; 
stroke-linecap:round; stroke-linejoin:round;">
<path d="M104.9020 97.7900
L102.8700 97.7900
" />
<path d="M105.9180 97.7900
L107.9500 97.7900
" />
<text x="105.4163" y="92.0749"
textLength="3.8922" font-size="1.6933" lengthAdjust="spacingAndGlyphs"
text-anchor="middle" opacity="0" stroke-opacity="0">C19</text>
<g class="stroked-text"><desc>C19</desc>
<path d="M104.5998 91.8985
L104.5394 91.9590
" />
<path d="M104.5394 91.9590
L104.3579 92.0194
" />
<path d="M104.3579 92.0194
L104.2370 92.0194
" />
<path d="M104.2370 92.0194
L104.0556 91.9590
" />
<path d="M104.0556 91.9590
L103.9346 91.8380
" />
<path d="M103.9346 91.8380
L103.8741 91.7170
" />
<path d="M103.8741 91.7170
L103.8137 91.4751
" />
<path d="M103.8137 91.4751
L103.8137 91.2937
" />
<path d="M103.8137 91.2937
L103.8741 91.0518
" />
<path d="M103.8741 91.0518
L103.9346 90.9309
" />
<path d="M103.9346 90.9309
L104.0556 90.8099
" />
<path d="M104.0556 90.8099
L104.2370 90.7494
" />
<path d="M104.2370 90.7494
L104.3579 90.7494
" />
<path d="M104.3579 90.7494
L104.5394 90.8099
" />
<path d="M104.5394 90.8099
L104.5998 90.8704
" />
<path d="M105.8094 92.0194
L105.0837 92.0194
" />
<path d="M105.4465 92.0194
L105.4465 90.7494
" />
<path d="M105.4465 90.7494
L105.3256 90.9309
" />
<path d="M105.3256 90.9309
L105.2046 91.0518
" />
<path d="M105.2046 91.0518
L105.0837 91.1123
" />
<path d="M106.4141 92.0194
L106.6560 92.0194
" />
<path d="M106.6560 92.0194
L106.7770 91.9590
" />
<path d="M106.7770 91.9590
L106.8374 91.8985
" />
<path d="M106.8374 91.8985
L106.9584 91.7170
" />
<path d="M106.9584 91.7170
L107.0189 91.4751
" />
<path d="M107.0189 91.4751
L107.0189 90.9913
" />
<path d="M107.0189 90.9913
L106.9584 90.8704
" />
<path d="M106.9584 90.8704
L106.8979 90.8099
" />
<path d="M106.8979 90.8099
L106.7770 90.7494
" />
<path d="M106.7770 90.7494
L106.5351 90.7494
" />
<path d="M106.5351 90.7494
L106.4141 90.8099
" />
<path d="M106.4141 90.8099
L106.3536 90.8704
" />
<path d="M106.3536 90.8704
L106.2932 90.9913
" />
<path d="M106.2932 90.9913
L106.2932 91.2937
" />
<path d="M106.2932 91.2937
L106.3536 91.4147
" />
<path d="M106.3536 91.4147
L106.4141 91.4751
" />
<path d="M106.4141 91.4751
L106.5351 91.5356
" />
<path d="M106.5351 91.5356
L106.7770 91.5356
" />
<path d="M106.7770 91.5356
L106.8979 91.4751
" />
<path d="M106.8979 91.4751
L106.9584 91.4147
" />
<path d="M106.9584 91.4147
L107.0189 91.2937
" />
</g><text x="105.4163" y="94.6149"
textLength="4.8598" font-size="1.6933" lengthAdjust="spacingAndGlyphs"
text-anchor="middle" opacity="0" stroke-opacity="0">10uF</text>
<g class="stroked-text"><desc>10uF</desc>
<path d="M104.0556 94.5594
L103.3299 94.5594
" />
<path d="M103.6927 94.5594
L103.6927 93.2894
" />
<path d="M103.6927 93.2894
L103.5718 93.4709
" />
<path d="M103.5718 93.4709
L103.4508 93.5918
" />
<path d="M103.4508 93.5918
L103.3299 93.6523
" />
<path d="M104.8417 93.2894
L104.9627 93.2894
" />
<path d="M104.9627 93.2894
L105.0836 93.3499
" />
<path d="M105.0836 93.3499
L105.1441 93.4104
" />
<path d="M105.1441 93.4104
L105.2046 93.5313
" />
<path d="M105.2046 93.5313
L105.2651 93.7732
" />
<path d="M105.2651 93.7732
L105.2651 94.0756
" />
<path d="M105.2651 94.0756
L105.2046 94.3175
" />
<path d="M105.2046 94.3175
L105.1441 94.4385
" />
<path d="M105.1441 94.4385
L105.0836 94.4990
" />
<path d="M105.0836 94.4990
L104.9627 94.5594
" />
<path d="M104.9627 94.5594
L104.8417 94.5594
" />
<path d="M104.8417 94.5594
L104.7208 94.4990
" />
<path d="M104.7208 94.4990
L104.6603 94.4385
" />
<path d="M104.6603 94.4385
L104.5998 94.3175
" />
<path d="M104.5998 94.3175
L104.5394 94.0756
" />
<path d="M104.5394 94.0756
L104.5394 93.7732
" />
<path d="M104.5394 93.7732
L104.5998 93.5313
" />
<path d="M104.5998 93.5313
L104.6603 93.4104
" />
<path d="M104.6603 93.4104
L104.7208 93.3499
" />
<path d="M104.7208 93.3499
L104.8417 93.2894
" />
<path d="M106.3536 93.7128
L106.3536 94.5594
" />
<path d="M105.8093 93.7128
L105.8093 94.3780
" />
<path d="M105.8093 94.3780
L105.8698 94.4990
" />
<path d="M105.8698 94.4990
L105.9908 94.5594
" />
<path d="M105.9908 94.5594
L106.1722 94.5594
" />
<path d="M106.1722 94.5594
L106.2931 94.4990
" />
<path d="M106.2931 94.4990
L106.3536 94.4385
" />
<path d="M107.3817 93.8942
L106.9583 93.8942
" />
<path d="M106.9583 94.5594
L106.9583 93.2894
" />
<path d="M106.9583 93.2894
L107.5631 93.2894
" />
</g><rect x="73.660000" y="59.563000" width="1.270000" height="0.254000" rx="0.000000" />
<rect x="73.660000" y="57.023000" width="1.270000" height="0.254000" rx="0.000000" />
<rect x="73.660000" y="54.483000" width="1.270000" height="0.254000" rx="0.000000" />
</g>
<g style="fill:none; 
stroke:#000000; stroke-width:0.2540; stroke-opacity:1; 
stroke-linecap:round; stroke-linejoin:round;">
<rect x="73.660000" y="53.340000" width="2.540000" height="7.620000" rx="0.000000" />
</g>
<g style="fill:none; 
stroke:#000000; stroke-width:0.1524; stroke-opacity:1; 
stroke-linecap:round; stroke-linejoin:round;">
<path d="M73.6600 54.6100
L69.8500 54.6100
" />
<text x="71.7550" y="54.3560"
textLength="1.4127" font-size="1.6933" lengthAdjust="spacingAndGlyphs"
text-anchor="middle" opacity="0" stroke-opacity="0">1</text>
<g class="stroked-text"><desc>1</desc>
<path d="M72.1179 54.1925
L71.3922 54.1925
" />
<path d="M71.7550 54.1925
L71.7550 52.9225
" />
<path d="M71.7550 52.9225
L71.6341 53.1040
" />
<path d="M71.6341 53.1040
L71.5131 53.2249
" />
<path d="M71.5131 53.2249
L71.3922 53.2854
" />
</g><path d="M73.6600 57.1500
L69.8500 57.1500
" />
<text x="71.7550" y="56.8960"
textLength="1.4127" font-size="1.6933" lengthAdjust="spacingAndGlyphs"
text-anchor="middle" opacity="0" stroke-opacity="0">2</text>
<g class="stroked-text"><desc>2</desc>
<path d="M71.3922 55.5835
L71.4526 55.5230
" />
<path d="M71.4526 55.5230
L71.5736 55.4625
" />
<path d="M71.5736 55.4625
L71.8760 55.4625
" />
<path d="M71.8760 55.4625
L71.9969 55.5230
" />
<path d="M71.9969 55.5230
L72.0574 55.5835
" />
<path d="M72.0574 55.5835
L72.1179 55.7044
" />
<path d="M72.1179 55.7044
L72.1179 55.8254
" />
<path d="M72.1179 55.8254
L72.0574 56.0068
" />
<path d="M72.0574 56.0068
L71.3317 56.7325
" />
<path d="M71.3317 56.7325
L72.1179 56.7325
" />
</g><path d="M73.6600 59.6900
L69.8500 59.6900
" />
<text x="71.7550" y="59.4360"
textLength="1.4127" font-size="1.6933" lengthAdjust="spacingAndGlyphs"
text-anchor="middle" opacity="0" stroke-opacity="0">3</text>
<g class="stroked-text"><desc>3</desc>
<path d="M71.3317 58.0025
L72.1179 58.0025
" />
<path d="M72.1179 58.0025
L71.6945 58.4863
" />
<path d="M71.6945 58.4863
L71.8760 58.4863
" />
<path d="M71.8760 58.4863
L71.9969 58.5468
" />
<path d="M71.9969 58.5468
L72.0574 58.6073
" />
<path d="M72.0574 58.6073
L72.1179 58.7282
" />
<path d="M72.1179 58.7282
L72.1179 59.0306
" />
<path d="M72.1179 59.0306
L72.0574 59.1516
" />
<path d="M72.0574 59.1516
L71.9969 59.2121
" />
<path d="M71.9969 59.2121
L71.8760 59.2725
" />
<path d="M71.8760 59.2725
L71.5131 59.2725
" />
<path d="M71.5131 59.2725
L71.3922 59.2121
" />
<path d="M71.3922 59.2121
L71.3317 59.1516
" />
</g><text x="79.2745" y="56.5149"
textLength="3.5898" font-size="1.6933" lengthAdjust="spacingAndGlyphs"
text-anchor="middle" opacity="0" stroke-opacity="0">J10</text>
<g class="stroked-text"><desc>J10</desc>
<path d="M78.2464 55.1894
L78.2464 56.0966
" />
<path d="M78.2464 56.0966
L78.1859 56.2780
" />
<path d="M78.1859 56.2780
L78.0650 56.3990
" />
<path d="M78.0650 56.3990
L77.8835 56.4594
" />
<path d="M77.8835 56.4594
L77.7626 56.4594
" />
<path d="M79.5164 56.4594
L78.7907 56.4594
" />
<path d="M79.1535 56.4594
L79.1535 55.1894
" />
<path d="M79.1535 55.1894
L79.0326 55.3709
" />
<path d="M79.0326 55.3709
L78.9116 55.4918
" />
<path d="M78.9116 55.4918
L78.7907 55.5523
" />
<path d="M80.3025 55.1894
L80.4235 55.1894
" />
<path d="M80.4235 55.1894
L80.5444 55.2499
" />
<path d="M80.5444 55.2499
L80.6049 55.3104
" />
<path d="M80.6049 55.3104
L80.6654 55.4313
" />
<path d="M80.6654 55.4313
L80.7259 55.6732
" />
<path d="M80.7259 55.6732
L80.7259 55.9756
" />
<path d="M80.7259 55.9756
L80.6654 56.2175
" />
<path d="M80.6654 56.2175
L80.6049 56.3385
" />
<path d="M80.6049 56.3385
L80.5444 56.3990
" />
<path d="M80.5444 56.3990
L80.4235 56.4594
" />
<path d="M80.4235 56.4594
L80.3025 56.4594
" />
<path d="M80.3025 56.4594
L80.1816 56.3990
" />
<path d="M80.1816 56.3990
L80.1211 56.3385
" />
<path d="M80.1211 56.3385
L80.0606 56.2175
" />
<path d="M80.0606 56.2175
L80.0002 55.9756
" />
<path d="M80.0002 55.9756
L80.0002 55.6732
" />
<path d="M80.0002 55.6732
L80.0606 55.4313
" />
<path d="M80.0606 55.4313
L80.1211 55.3104
" />
<path d="M80.1211 55.3104
L80.1816 55.2499
" />
<path d="M80.1816 55.2499
L80.3025 55.1894
" />
</g><text x="83.3565" y="59.0549"
textLength="11.7539" font-size="1.6933" lengthAdjust="spacingAndGlyphs"
text-anchor="middle" opacity="0" stroke-opacity="0">Conn_01x03</text>
<g class="stroked-text"><desc>Conn_01x03</desc>
<path d="M78.6092 58.8785
L78.5488 58.9390
" />
<path d="M78.5488 58.9390
L78.3673 58.9994
" />
<path d="M78.3673 58.9994
L78.2464 58.9994
" />
<path d="M78.2464 58.9994
L78.0650 58.9390
" />
<path d="M78.0650 58.9390
L77.9440 58.8180
" />
<path d="M77.9440 58.8180
L77.8835 58.6970
" />
<path d="M77.8835 58.6970
L77.8231 58.4551
" />
<path d="M77.8231 58.4551
L77.8231 58.2737
" />
<path d="M77.8231 58.2737
L77.8835 58.0318
" />
<path d="M77.8835 58.0318
L77.9440 57.9109
" />
<path d="M77.9440 57.9109
L78.0650 57.7899
" />
<path d="M78.0650 57.7899
L78.2464 57.7294
" />
<path d="M78.2464 57.7294
L78.3673 57.7294
" />
<path d="M78.3673 57.7294
L78.5488 57.7899
" />
<path d="M78.5488 57.7899
L78.6092 57.8504
" />
<path d="M79.3350 58.9994
L79.2140 58.9390
" />
<path d="M79.2140 58.9390
L79.1535 58.8785
" />
<path d="M79.1535 58.8785
L79.0931 58.7575
" />
<path d="M79.0931 58.7575
L79.0931 58.3947
" />
<path d="M79.0931 58.3947
L79.1535 58.2737
" />
<path d="M79.1535 58.2737
L79.2140 58.2132
" />
<path d="M79.2140 58.2132
L79.3350 58.1528
" />
<path d="M79.3350 58.1528
L79.5164 58.1528
" />
<path d="M79.5164 58.1528
L79.6373 58.2132
" />
<path d="M79.6373 58.2132
L79.6978 58.2737
" />
<path d="M79.6978 58.2737
L79.7583 58.3947
" />
<path d="M79.7583 58.3947
L79.7583 58.7575
" />
<path d="M79.7583 58.7575
L79.6978 58.8785
" />
<path d="M79.6978 58.8785
L79.6373 58.9390
" />
<path d="M79.6373 58.9390
L79.5164 58.9994
" />
<path d="M79.5164 58.9994
L79.3350 58.9994
" />
<path d="M80.3025 58.1528
L80.3025 58.9994
" />
<path d="M80.3025 58.2737
L80.3630 58.2132
" />
<path d="M80.3630 58.2132
L80.4840 58.1528
" />
<path d="M80.4840 58.1528
L80.6654 58.1528
" />
<path d="M80.6654 58.1528
L80.7863 58.2132
" />
<path d="M80.7863 58.2132
L80.8468 58.3342
" />
<path d="M80.8468 58.3342
L80.8468 58.9994
" />
<path d="M81.4515 58.1528
L81.4515 58.9994
" />
<path d="M81.4515 58.2737
L81.5120 58.2132
" />
<path d="M81.5120 58.2132
L81.6330 58.1528
" />
<path d="M81.6330 58.1528
L81.8144 58.1528
" />
<path d="M81.8144 58.1528
L81.9353 58.2132
" />
<path d="M81.9353 58.2132
L81.9958 58.3342
" />
<path d="M81.9958 58.3342
L81.9958 58.9994
" />
<path d="M82.2982 59.1204
L83.2658 59.1204
" />
<path d="M83.8100 57.7294
L83.9310 57.7294
" />
<path d="M83.9310 57.7294
L84.0519 57.7899
" />
<path d="M84.0519 57.7899
L84.1124 57.8504
" />
<path d="M84.1124 57.8504
L84.1729 57.9713
" />
<path d="M84.1729 57.9713
L84.2334 58.2132
" />
<path d="M84.2334 58.2132
L84.2334 58.5156
" />
<path d="M84.2334 58.5156
L84.1729 58.7575
" />
<path d="M84.1729 58.7575
L84.1124 58.8785
" />
<path d="M84.1124 58.8785
L84.0519 58.9390
" />
<path d="M84.0519 58.9390
L83.9310 58.9994
" />
<path d="M83.9310 58.9994
L83.8100 58.9994
" />
<path d="M83.8100 58.9994
L83.6891 58.9390
" />
<path d="M83.6891 58.9390
L83.6286 58.8785
" />
<path d="M83.6286 58.8785
L83.5681 58.7575
" />
<path d="M83.5681 58.7575
L83.5077 58.5156
" />
<path d="M83.5077 58.5156
L83.5077 58.2132
" />
<path d="M83.5077 58.2132
L83.5681 57.9713
" />
<path d="M83.5681 57.9713
L83.6286 57.8504
" />
<path d="M83.6286 57.8504
L83.6891 57.7899
" />
<path d="M83.6891 57.7899
L83.8100 57.7294
" />
<path d="M85.4429 58.9994
L84.7172 58.9994
" />
<path d="M85.0800 58.9994
L85.0800 57.7294
" />
<path d="M85.0800 57.7294
L84.9591 57.9109
" />
<path d="M84.9591 57.9109
L84.8381 58.0318
" />
<path d="M84.8381 58.0318
L84.7172 58.0923
" />
<path d="M85.8662 58.9994
L86.5314 58.1528
" />
<path d="M85.8662 58.1528
L86.5314 58.9994
" />
<path d="M87.2571 57.7294
L87.3781 57.7294
" />
<path d="M87.3781 57.7294
L87.4990 57.7899
" />
<path d="M87.4990 57.7899
L87.5595 57.8504
" />
<path d="M87.5595 57.8504
L87.6200 57.9713
" />
<path d="M87.6200 57.9713
L87.6805 58.2132
" />
<path d="M87.6805 58.2132
L87.6805 58.5156
" />
<path d="M87.6805 58.5156
L87.6200 58.7575
" />
<path d="M87.6200 58.7575
L87.5595 58.8785
" />
<path d="M87.5595 58.8785
L87.4990 58.9390
" />
<path d="M87.4990 58.9390
L87.3781 58.9994
" />
<path d="M87.3781 58.9994
L87.2571 58.9994
" />
<path d="M87.2571 58.9994
L87.1362 58.9390
" />
<path d="M87.1362 58.9390
L87.0757 58.8785
" />
<path d="M87.0757 58.8785
L87.0152 58.7575
" />
<path d="M87.0152 58.7575
L86.9548 58.5156
" />
<path d="M86.9548 58.5156
L86.9548 58.2132
" />
<path d="M86.9548 58.2132
L87.0152 57.9713
" />
<path d="M87.0152 57.9713
L87.0757 57.8504
" />
<path d="M87.0757 57.8504
L87.1362 57.7899
" />
<path d="M87.1362 57.7899
L87.2571 57.7294
" />
<path d="M88.1038 57.7294
L88.8900 57.7294
" />
<path d="M88.8900 57.7294
L88.4666 58.2132
" />
<path d="M88.4666 58.2132
L88.6481 58.2132
" />
<path d="M88.6481 58.2132
L88.7690 58.2737
" />
<path d="M88.7690 58.2737
L88.8295 58.3342
" />
<path d="M88.8295 58.3342
L88.8900 58.4551
" />
<path d="M88.8900 58.4551
L88.8900 58.7575
" />
<path d="M88.8900 58.7575
L88.8295 58.8785
" />
<path d="M88.8295 58.8785
L88.7690 58.9390
" />
<path d="M88.7690 58.9390
L88.6481 58.9994
" />
<path d="M88.6481 58.9994
L88.2852 58.9994
" />
<path d="M88.2852 58.9994
L88.1643 58.9390
" />
<path d="M88.1643 58.9390
L88.1038 58.8785
" />
</g></g>
<g style="fill:none; 
stroke:#000000; stroke-width:0.4572; stroke-opacity:1; 
stroke-linecap:round; stroke-linejoin:round;">
<path d="M69.8499 53.2130
L76.3270 61.0870
" />
<path d="M76.3270 53.2130
L69.8499 61.0870
" />
<path style="fill:none; 
stroke:#000000; stroke-width:0.1524; stroke-opacity:1; 
stroke-linecap:round; stroke-linejoin:round;fill:none"
d="M 119.3800,76.2000
119.3800,77.2160
" /> 
<path style="fill:#000000; fill-opacity:1.0000; 
stroke:#000000; stroke-width:0.1524; stroke-opacity:1; 
stroke-linecap:round; stroke-linejoin:round;fill-rule:evenodd;"
d="M 119.3800,77.5970
119.8880,76.4540
118.8720,76.4540
Z" /> 
</g>
<g style="fill:none; 
stroke:#000000; stroke-width:0.2540; stroke-opacity:1; 
stroke-linecap:round; stroke-linejoin:round;">
<rect x="116.840000" y="77.724000" width="5.080000" height="2.032000" rx="0.000000" />
</g>
<g style="fill:none; 
stroke:#000000; stroke-width:0.1524; stroke-opacity:1; 
stroke-linecap:round; stroke-linejoin:round;">
<path d="M121.9200 78.7400
L123.1900 78.7400
" />
<text x="122.5550" y="78.4860"
textLength="1.4127" font-size="1.6933" lengthAdjust="spacingAndGlyphs"
text-anchor="middle" opacity="0" stroke-opacity="0">1</text>
<g class="stroked-text"><desc>1</desc>
<path d="M122.9179 78.3225
L122.1922 78.3225
" />
<path d="M122.5550 78.3225
L122.5550 77.0525
" />
<path d="M122.5550 77.0525
L122.4341 77.2340
" />
<path d="M122.4341 77.2340
L122.3131 77.3549
" />
<path d="M122.3131 77.3549
L122.1922 77.4154
" />
</g><path d="M119.3800 76.2000
L119.3800 74.9300
" />
<g transform="rotate(-90.000000 119.1260 75.5650)">
<text x="119.1260" y="75.5650"
textLength="1.4127" font-size="1.6933" lengthAdjust="spacingAndGlyphs"
text-anchor="middle" opacity="0" stroke-opacity="0">2</text>
</g>
<g class="stroked-text"><desc>2</desc>
<path d="M117.8135 75.9277
L117.7530 75.8673
" />
<path d="M117.7530 75.8673
L117.6925 75.7463
" />
<path d="M117.6925 75.7463
L117.6925 75.4439
" />
<path d="M117.6925 75.4439
L117.7530 75.3230
" />
<path d="M117.7530 75.3230
L117.8135 75.2625
" />
<path d="M117.8135 75.2625
L117.9344 75.2020
" />
<path d="M117.9344 75.2020
L118.0554 75.2020
" />
<path d="M118.0554 75.2020
L118.2368 75.2625
" />
<path d="M118.2368 75.2625
L118.9625 75.9882
" />
<path d="M118.9625 75.9882
L118.9625 75.2020
" />
</g><path d="M116.8400 78.7400
L115.5700 78.7400
" />
<text x="116.2050" y="78.4860"
textLength="1.4127" font-size="1.6933" lengthAdjust="spacingAndGlyphs"
text-anchor="middle" opacity="0" stroke-opacity="0">3</text>
<g class="stroked-text"><desc>3</desc>
<path d="M115.7817 77.0525
L116.5679 77.0525
" />
<path d="M116.5679 77.0525
L116.1445 77.5363
" />
<path d="M116.1445 77.5363
L116.3260 77.5363
" />
<path d="M116.3260 77.5363
L116.4469 77.5968
" />
<path d="M116.4469 77.5968
L116.5074 77.6573
" />
<path d="M116.5074 77.6573
L116.5679 77.7782
" />
<path d="M116.5679 77.7782
L116.5679 78.0806
" />
<path d="M116.5679 78.0806
L116.5074 78.2016
" />
<path d="M116.5074 78.2016
L116.4469 78.2621
" />
<path d="M116.4469 78.2621
L116.3260 78.3225
" />
<path d="M116.3260 78.3225
L115.9631 78.3225
" />
<path d="M115.9631 78.3225
L115.8422 78.2621
" />
<path d="M115.8422 78.2621
L115.7817 78.2016
" />
</g><text x="119.3800" y="83.1849"
textLength="4.9808" font-size="1.6933" lengthAdjust="spacingAndGlyphs"
text-anchor="middle" opacity="0" stroke-opacity="0">RV16</text>
<g class="stroked-text"><desc>RV16</desc>
<path d="M118.0192 83.1294
L117.5959 82.5247
" />
<path d="M117.2935 83.1294
L117.2935 81.8594
" />
<path d="M117.2935 81.8594
L117.7773 81.8594
" />
<path d="M117.7773 81.8594
L117.8983 81.9199
" />
<path d="M117.8983 81.9199
L117.9588 81.9804
" />
<path d="M117.9588 81.9804
L118.0192 82.1013
" />
<path d="M118.0192 82.1013
L118.0192 82.2828
" />
<path d="M118.0192 82.2828
L117.9588 82.4037
" />
<path d="M117.9588 82.4037
L117.8983 82.4642
" />
<path d="M117.8983 82.4642
L117.7773 82.5247
" />
<path d="M117.7773 82.5247
L117.2935 82.5247
" />
<path d="M118.3821 81.8594
L118.8054 83.1294
" />
<path d="M118.8054 83.1294
L119.2288 81.8594
" />
<path d="M120.3174 83.1294
L119.5917 83.1294
" />
<path d="M119.9545 83.1294
L119.9545 81.8594
" />
<path d="M119.9545 81.8594
L119.8336 82.0409
" />
<path d="M119.8336 82.0409
L119.7126 82.1618
" />
<path d="M119.7126 82.1618
L119.5917 82.2223
" />
<path d="M121.4059 81.8594
L121.1640 81.8594
" />
<path d="M121.1640 81.8594
L121.0431 81.9199
" />
<path d="M121.0431 81.9199
L120.9826 81.9804
" />
<path d="M120.9826 81.9804
L120.8616 82.1618
" />
<path d="M120.8616 82.1618
L120.8012 82.4037
" />
<path d="M120.8012 82.4037
L120.8012 82.8875
" />
<path d="M120.8012 82.8875
L120.8616 83.0085
" />
<path d="M120.8616 83.0085
L120.9221 83.0690
" />
<path d="M120.9221 83.0690
L121.0431 83.1294
" />
<path d="M121.0431 83.1294
L121.2850 83.1294
" />
<path d="M121.2850 83.1294
L121.4059 83.0690
" />
<path d="M121.4059 83.0690
L121.4664 83.0085
" />
<path d="M121.4664 83.0085
L121.5269 82.8875
" />
<path d="M121.5269 82.8875
L121.5269 82.5851
" />
<path d="M121.5269 82.5851
L121.4664 82.4642
" />
<path d="M121.4664 82.4642
L121.4059 82.4037
" />
<path d="M121.4059 82.4037
L121.2850 82.3432
" />
<path d="M121.2850 82.3432
L121.0431 82.3432
" />
<path d="M121.0431 82.3432
L120.9221 82.4037
" />
<path d="M120.9221 82.4037
L120.8616 82.4642
" />
<path d="M120.8616 82.4642
L120.8012 82.5851
" />
</g><text x="119.3800" y="85.7249"
textLength="6.1903" font-size="1.6933" lengthAdjust="spacingAndGlyphs"
text-anchor="middle" opacity="0" stroke-opacity="0">A100K</text>
<g class="stroked-text"><desc>A100K</desc>
<path d="M116.6284 85.3066
L117.2331 85.3066
" />
<path d="M116.5074 85.6694
L116.9307 84.3994
" />
<path d="M116.9307 84.3994
L117.3541 85.6694
" />
<path d="M118.4427 85.6694
L117.7170 85.6694
" />
<path d="M118.0798 85.6694
L118.0798 84.3994
" />
<path d="M118.0798 84.3994
L117.9589 84.5809
" />
<path d="M117.9589 84.5809
L117.8379 84.7018
" />
<path d="M117.8379 84.7018
L117.7170 84.7623
" />
<path d="M119.2288 84.3994
L119.3498 84.3994
" />
<path d="M119.3498 84.3994
L119.4707 84.4599
" />
<path d="M119.4707 84.4599
L119.5312 84.5204
" />
<path d="M119.5312 84.5204
L119.5917 84.6413
" />
<path d="M119.5917 84.6413
L119.6522 84.8832
" />
<path d="M119.6522 84.8832
L119.6522 85.1856
" />
<path d="M119.6522 85.1856
L119.5917 85.4275
" />
<path d="M119.5917 85.4275
L119.5312 85.5485
" />
<path d="M119.5312 85.5485
L119.4707 85.6090
" />
<path d="M119.4707 85.6090
L119.3498 85.6694
" />
<path d="M119.3498 85.6694
L119.2288 85.6694
" />
<path d="M119.2288 85.6694
L119.1079 85.6090
" />
<path d="M119.1079 85.6090
L119.0474 85.5485
" />
<path d="M119.0474 85.5485
L118.9869 85.4275
" />
<path d="M118.9869 85.4275
L118.9265 85.1856
" />
<path d="M118.9265 85.1856
L118.9265 84.8832
" />
<path d="M118.9265 84.8832
L118.9869 84.6413
" />
<path d="M118.9869 84.6413
L119.0474 84.5204
" />
<path d="M119.0474 84.5204
L119.1079 84.4599
" />
<path d="M119.1079 84.4599
L119.2288 84.3994
" />
<path d="M120.4383 84.3994
L120.5593 84.3994
" />
<path d="M120.5593 84.3994
L120.6802 84.4599
" />
<path d="M120.6802 84.4599
L120.7407 84.5204
" />
<path d="M120.7407 84.5204
L120.8012 84.6413
" />
<path d="M120.8012 84.6413
L120.8617 84.8832
" />
<path d="M120.8617 84.8832
L120.8617 85.1856
" />
<path d="M120.8617 85.1856
L120.8012 85.4275
" />
<path d="M120.8012 85.4275
L120.7407 85.5485
" />
<path d="M120.7407 85.5485
L120.6802 85.6090
" />
<path d="M120.6802 85.6090
L120.5593 85.6694
" />
<path d="M120.5593 85.6694
L120.4383 85.6694
" />
<path d="M120.4383 85.6694
L120.3174 85.6090
" />
<path d="M120.3174 85.6090
L120.2569 85.5485
" />
<path d="M120.2569 85.5485
L120.1964 85.4275
" />
<path d="M120.1964 85.4275
L120.1360 85.1856
" />
<path d="M120.1360 85.1856
L120.1360 84.8832
" />
<path d="M120.1360 84.8832
L120.1964 84.6413
" />
<path d="M120.1964 84.6413
L120.2569 84.5204
" />
<path d="M120.2569 84.5204
L120.3174 84.4599
" />
<path d="M120.3174 84.4599
L120.4383 84.3994
" />
<path d="M121.4059 85.6694
L121.4059 84.3994
" />
<path d="M122.1316 85.6694
L121.5874 84.9437
" />
<path d="M122.1316 84.3994
L121.4059 85.1251
" />
</g></g>
<g style="fill:none; 
stroke:#000000; stroke-width:0.4572; stroke-opacity:1; 
stroke-linecap:round; stroke-linejoin:round;">
<path d="M115.5699 74.9299
L123.1901 79.8830
" />
<path d="M123.1901 74.9299
L115.5699 79.8830
" />
</g>
<g style="fill:none; 
stroke:#000000; stroke-width:0.1524; stroke-opacity:1; 
stroke-linecap:round; stroke-linejoin:round;">
<text x="95.0595" y="79.3750"
textLength="4.1342" font-size="1.6933" lengthAdjust="spacingAndGlyphs"
text-anchor="end" opacity="0" stroke-opacity="0">IN_L</text>
<g class="stroked-text"><desc>IN_L</desc>
<path d="M91.3306 79.3195
L91.3306 78.0495
" />
<path d="M91.9354 79.3195
L91.9354 78.0495
" />
<path d="M91.9354 78.0495
L92.6611 79.3195
" />
<path d="M92.6611 79.3195
L92.6611 78.0495
" />
<path d="M92.9636 79.4405
L93.9312 79.4405
" />
<path d="M94.8383 79.3195
L94.2335 79.3195
" />
<path d="M94.2335 79.3195
L94.2335 78.0495
" />
</g><path style="fill:none; 
stroke:#000000; stroke-width:0.1524; stroke-opacity:1; 
stroke-linecap:round; stroke-linejoin:round;fill:none"
d="M 96.5200,78.7400
95.8850,78.1050
95.2500,78.1050
95.2500,79.3750
95.8850,79.3750
Z" /> 
</g>
<g style="fill:none; 
stroke:#000000; stroke-width:0.1524; stroke-opacity:1; 
stroke-linecap:round; stroke-linejoin:round;">
<text x="152.2095" y="89.5350"
textLength="4.0737" font-size="1.6933" lengthAdjust="spacingAndGlyphs"
text-anchor="end" opacity="0" stroke-opacity="0">GND</text>
<g class="stroked-text"><desc>GND</desc>
<path d="M149.2064 88.2700
L149.0854 88.2095
" />
<path d="M149.0854 88.2095
L148.9040 88.2095
" />
<path d="M148.9040 88.2095
L148.7226 88.2700
" />
<path d="M148.7226 88.2700
L148.6016 88.3910
" />
<path d="M148.6016 88.3910
L148.5411 88.5119
" />
<path d="M148.5411 88.5119
L148.4807 88.7538
" />
<path d="M148.4807 88.7538
L148.4807 88.9352
" />
<path d="M148.4807 88.9352
L148.5411 89.1771
" />
<path d="M148.5411 89.1771
L148.6016 89.2981
" />
<path d="M148.6016 89.2981
L148.7226 89.4191
" />
<path d="M148.7226 89.4191
L148.9040 89.4795
" />
<path d="M148.9040 89.4795
L149.0249 89.4795
" />
<path d="M149.0249 89.4795
L149.2064 89.4191
" />
<path d="M149.2064 89.4191
L149.2668 89.3586
" />
<path d="M149.2668 89.3586
L149.2668 88.9352
" />
<path d="M149.2668 88.9352
L149.0249 88.9352
" />
<path d="M149.8111 89.4795
L149.8111 88.2095
" />
<path d="M149.8111 88.2095
L150.5368 89.4795
" />
<path d="M150.5368 89.4795
L150.5368 88.2095
" />
<path d="M151.1416 89.4795
L151.1416 88.2095
" />
<path d="M151.1416 88.2095
L151.4440 88.2095
" />
<path d="M151.4440 88.2095
L151.6254 88.2700
" />
<path d="M151.6254 88.2700
L151.7464 88.3910
" />
<path d="M151.7464 88.3910
L151.8069 88.5119
" />
<path d="M151.8069 88.5119
L151.8673 88.7538
" />
<path d="M151.8673 88.7538
L151.8673 88.9352
" />
<path d="M151.8673 88.9352
L151.8069 89.1771
" />
<path d="M151.8069 89.1771
L151.7464 89.2981
" />
<path d="M151.7464 89.2981
L151.6254 89.4191
" />
<path d="M151.6254 89.4191
L151.4440 89.4795
" />
<path d="M151.4440 89.4795
L151.1416 89.4795
" />
</g><path style="fill:none; 
stroke:#000000; stroke-width:0.1524; stroke-opacity:1; 
stroke-linecap:round; stroke-linejoin:round;fill:none"
d="M 153.6700,88.9000
153.0350,88.2650
152.4000,88.2650
152.4000,89.5350
153.0350,89.5350
Z" /> 
</g>
<g style="fill:none; 
stroke:#000000; stroke-width:0.1524; stroke-opacity:1; 
stroke-linecap:round; stroke-linejoin:round;">
<text x="95.0595" y="98.4250"
textLength="4.3761" font-size="1.6933" lengthAdjust="spacingAndGlyphs"
text-anchor="end" opacity="0" stroke-opacity="0">IN_R</text>
<g class="stroked-text"><desc>IN_R</desc>
<path d="M91.0887 98.3695
L91.0887 97.0995
" />
<path d="M91.6935 98.3695
L91.6935 97.0995
" />
<path d="M91.6935 97.0995
L92.4192 98.3695
" />
<path d="M92.4192 98.3695
L92.4192 97.0995
" />
<path d="M92.7217 98.4905
L93.6893 98.4905
" />
<path d="M94.7173 98.3695
L94.2940 97.7648
" />
<path d="M93.9916 98.3695
L93.9916 97.0995
" />
<path d="M93.9916 97.0995
L94.4754 97.0995
" />
<path d="M94.4754 97.0995
L94.5964 97.1600
" />
<path d="M94.5964 97.1600
L94.6569 97.2205
" />
<path d="M94.6569 97.2205
L94.7173 97.3414
" />
<path d="M94.7173 97.3414
L94.7173 97.5229
" />
<path d="M94.7173 97.5229
L94.6569 97.6438
" />
<path d="M94.6569 97.6438
L94.5964 97.7043
" />
<path d="M94.5964 97.7043
L94.4754 97.7648
" />
<path d="M94.4754 97.7648
L93.9916 97.7648
" />
</g><path style="fill:none; 
stroke:#000000; stroke-width:0.1524; stroke-opacity:1; 
stroke-linecap:round; stroke-linejoin:round;fill:none"
d="M 96.5200,97.7900
95.8850,97.1550
95.2500,97.1550
95.2500,98.4250
95.8850,98.4250
Z" /> 
</g>
<g style="fill:none; 
stroke:#000000; stroke-width:0.1524; stroke-opacity:1; 
stroke-linecap:round; stroke-linejoin:round;">
<text x="68.3895" y="60.3250"
textLength="4.3761" font-size="1.6933" lengthAdjust="spacingAndGlyphs"
text-anchor="end" opacity="0" stroke-opacity="0">IN_R</text>
<g class="stroked-text"><desc>IN_R</desc>
<path d="M64.4187 60.2695
L64.4187 58.9995
" />
<path d="M65.0235 60.2695
L65.0235 58.9995
" />
<path d="M65.0235 58.9995
L65.7492 60.2695
" />
<path d="M65.7492 60.2695
L65.7492 58.9995
" />
<path d="M66.0517 60.3905
L67.0193 60.3905
" />
<path d="M68.0473 60.2695
L67.6240 59.6648
" />
<path d="M67.3216 60.2695
L67.3216 58.9995
" />
<path d="M67.3216 58.9995
L67.8054 58.9995
" />
<path d="M67.8054 58.9995
L67.9264 59.0600
" />
<path d="M67.9264 59.0600
L67.9869 59.1205
" />
<path d="M67.9869 59.1205
L68.0473 59.2414
" />
<path d="M68.0473 59.2414
L68.0473 59.4229
" />
<path d="M68.0473 59.4229
L67.9869 59.5438
" />
<path d="M67.9869 59.5438
L67.9264 59.6043
" />
<path d="M67.9264 59.6043
L67.8054 59.6648
" />
<path d="M67.8054 59.6648
L67.3216 59.6648
" />
</g><path style="fill:none; 
stroke:#000000; stroke-width:0.1524; stroke-opacity:1; 
stroke-linecap:round; stroke-linejoin:round;fill:none"
d="M 69.8500,59.6900
69.2150,59.0550
68.5800,59.0550
68.5800,60.3250
69.2150,60.3250
Z" /> 
</g>
<g style="fill:none; 
stroke:#000000; stroke-width:0.1524; stroke-opacity:1; 
stroke-linecap:round; stroke-linejoin:round;">
<text x="68.3895" y="57.7850"
textLength="4.1342" font-size="1.6933" lengthAdjust="spacingAndGlyphs"
text-anchor="end" opacity="0" stroke-opacity="0">IN_L</text>
<g class="stroked-text"><desc>IN_L</desc>
<path d="M64.6606 57.7295
L64.6606 56.4595
" />
<path d="M65.2654 57.7295
L65.2654 56.4595
" />
<path d="M65.2654 56.4595
L65.9911 57.7295
" />
<path d="M65.9911 57.7295
L65.9911 56.4595
" />
<path d="M66.2936 57.8505
L67.2612 57.8505
" />
<path d="M68.1683 57.7295
L67.5635 57.7295
" />
<path d="M67.5635 57.7295
L67.5635 56.4595
" />
</g><path style="fill:none; 
stroke:#000000; stroke-width:0.1524; stroke-opacity:1; 
stroke-linecap:round; stroke-linejoin:round;fill:none"
d="M 69.8500,57.1500
69.2150,56.5150
68.5800,56.5150
68.5800,57.7850
69.2150,57.7850
Z" /> 
</g>
<g style="fill:none; 
stroke:#000000; stroke-width:0.1524; stroke-opacity:1; 
stroke-linecap:round; stroke-linejoin:round;">
<text x="124.6505" y="98.4250"
textLength="4.0737" font-size="1.6933" lengthAdjust="spacingAndGlyphs"
text-anchor="start" opacity="0" stroke-opacity="0">GND</text>
<g class="stroked-text"><desc>GND</desc>
<path d="M125.7183 97.1600
L125.5973 97.0995
" />
<path d="M125.5973 97.0995
L125.4159 97.0995
" />
<path d="M125.4159 97.0995
L125.2345 97.1600
" />
<path d="M125.2345 97.1600
L125.1135 97.2810
" />
<path d="M125.1135 97.2810
L125.0530 97.4019
" />
<path d="M125.0530 97.4019
L124.9926 97.6438
" />
<path d="M124.9926 97.6438
L124.9926 97.8252
" />
<path d="M124.9926 97.8252
L125.0530 98.0671
" />
<path d="M125.0530 98.0671
L125.1135 98.1881
" />
<path d="M125.1135 98.1881
L125.2345 98.3091
" />
<path d="M125.2345 98.3091
L125.4159 98.3695
" />
<path d="M125.4159 98.3695
L125.5368 98.3695
" />
<path d="M125.5368 98.3695
L125.7183 98.3091
" />
<path d="M125.7183 98.3091
L125.7787 98.2486
" />
<path d="M125.7787 98.2486
L125.7787 97.8252
" />
<path d="M125.7787 97.8252
L125.5368 97.8252
" />
<path d="M126.3230 98.3695
L126.3230 97.0995
" />
<path d="M126.3230 97.0995
L127.0487 98.3695
" />
<path d="M127.0487 98.3695
L127.0487 97.0995
" />
<path d="M127.6535 98.3695
L127.6535 97.0995
" />
<path d="M127.6535 97.0995
L127.9559 97.0995
" />
<path d="M127.9559 97.0995
L128.1373 97.1600
" />
<path d="M128.1373 97.1600
L128.2583 97.2810
" />
<path d="M128.2583 97.2810
L128.3188 97.4019
" />
<path d="M128.3188 97.4019
L128.3792 97.6438
" />
<path d="M128.3792 97.6438
L128.3792 97.8252
" />
<path d="M128.3792 97.8252
L128.3188 98.0671
" />
<path d="M128.3188 98.0671
L128.2583 98.1881
" />
<path d="M128.2583 98.1881
L128.1373 98.3091
" />
<path d="M128.1373 98.3091
L127.9559 98.3695
" />
<path d="M127.9559 98.3695
L127.6535 98.3695
" />
</g><path style="fill:none; 
stroke:#000000; stroke-width:0.1524; stroke-opacity:1; 
stroke-linecap:round; stroke-linejoin:round;fill:none"
d="M 123.1900,97.7900
123.8250,98.4250
124.4600,98.4250
124.4600,97.1550
123.8250,97.1550
Z" /> 
</g>
<g style="fill:none; 
stroke:#000000; stroke-width:0.1524; stroke-opacity:1; 
stroke-linecap:round; stroke-linejoin:round;">
<text x="124.6505" y="79.3750"
textLength="4.0737" font-size="1.6933" lengthAdjust="spacingAndGlyphs"
text-anchor="start" opacity="0" stroke-opacity="0">GND</text>
<g class="stroked-text"><desc>GND</desc>
<path d="M125.7183 78.1100
L125.5973 78.0495
" />
<path d="M125.5973 78.0495
L125.4159 78.0495
" />
<path d="M125.4159 78.0495
L125.2345 78.1100
" />
<path d="M125.2345 78.1100
L125.1135 78.2310
" />
<path d="M125.1135 78.2310
L125.0530 78.3519
" />
<path d="M125.0530 78.3519
L124.9926 78.5938
" />
<path d="M124.9926 78.5938
L124.9926 78.7752
" />
<path d="M124.9926 78.7752
L125.0530 79.0171
" />
<path d="M125.0530 79.0171
L125.1135 79.1381
" />
<path d="M125.1135 79.1381
L125.2345 79.2591
" />
<path d="M125.2345 79.2591
L125.4159 79.3195
" />
<path d="M125.4159 79.3195
L125.5368 79.3195
" />
<path d="M125.5368 79.3195
L125.7183 79.2591
" />
<path d="M125.7183 79.2591
L125.7787 79.1986
" />
<path d="M125.7787 79.1986
L125.7787 78.7752
" />
<path d="M125.7787 78.7752
L125.5368 78.7752
" />
<path d="M126.3230 79.3195
L126.3230 78.0495
" />
<path d="M126.3230 78.0495
L127.0487 79.3195
" />
<path d="M127.0487 79.3195
L127.0487 78.0495
" />
<path d="M127.6535 79.3195
L127.6535 78.0495
" />
<path d="M127.6535 78.0495
L127.9559 78.0495
" />
<path d="M127.9559 78.0495
L128.1373 78.1100
" />
<path d="M128.1373 78.1100
L128.2583 78.2310
" />
<path d="M128.2583 78.2310
L128.3188 78.3519
" />
<path d="M128.3188 78.3519
L128.3792 78.5938
" />
<path d="M128.3792 78.5938
L128.3792 78.7752
" />
<path d="M128.3792 78.7752
L128.3188 79.0171
" />
<path d="M128.3188 79.0171
L128.2583 79.1381
" />
<path d="M128.2583 79.1381
L128.1373 79.2591
" />
<path d="M128.1373 79.2591
L127.9559 79.3195
" />
<path d="M127.9559 79.3195
L127.6535 79.3195
" />
</g><path style="fill:none; 
stroke:#000000; stroke-width:0.1524; stroke-opacity:1; 
stroke-linecap:round; stroke-linejoin:round;fill:none"
d="M 123.1900,78.7400
123.8250,79.3750
124.4600,79.3750
124.4600,78.1050
123.8250,78.1050
Z" /> 
</g>
<g style="fill:none; 
stroke:#000000; stroke-width:0.1524; stroke-opacity:1; 
stroke-linecap:round; stroke-linejoin:round;">
<text x="68.3895" y="55.2450"
textLength="4.0737" font-size="1.6933" lengthAdjust="spacingAndGlyphs"
text-anchor="end" opacity="0" stroke-opacity="0">GND</text>
<g class="stroked-text"><desc>GND</desc>
<path d="M65.3864 53.9800
L65.2654 53.9195
" />
<path d="M65.2654 53.9195
L65.0840 53.9195
" />
<path d="M65.0840 53.9195
L64.9026 53.9800
" />
<path d="M64.9026 53.9800
L64.7816 54.1010
" />
<path d="M64.7816 54.1010
L64.7211 54.2219
" />
<path d="M64.7211 54.2219
L64.6607 54.4638
" />
<path d="M64.6607 54.4638
L64.6607 54.6452
" />
<path d="M64.6607 54.6452
L64.7211 54.8871
" />
<path d="M64.7211 54.8871
L64.7816 55.0081
" />
<path d="M64.7816 55.0081
L64.9026 55.1291
" />
<path d="M64.9026 55.1291
L65.0840 55.1895
" />
<path d="M65.0840 55.1895
L65.2049 55.1895
" />
<path d="M65.2049 55.1895
L65.3864 55.1291
" />
<path d="M65.3864 55.1291
L65.4468 55.0686
" />
<path d="M65.4468 55.0686
L65.4468 54.6452
" />
<path d="M65.4468 54.6452
L65.2049 54.6452
" />
<path d="M65.9911 55.1895
L65.9911 53.9195
" />
<path d="M65.9911 53.9195
L66.7168 55.1895
" />
<path d="M66.7168 55.1895
L66.7168 53.9195
" />
<path d="M67.3216 55.1895
L67.3216 53.9195
" />
<path d="M67.3216 53.9195
L67.6240 53.9195
" />
<path d="M67.6240 53.9195
L67.8054 53.9800
" />
<path d="M67.8054 53.9800
L67.9264 54.1010
" />
<path d="M67.9264 54.1010
L67.9869 54.2219
" />
<path d="M67.9869 54.2219
L68.0473 54.4638
" />
<path d="M68.0473 54.4638
L68.0473 54.6452
" />
<path d="M68.0473 54.6452
L67.9869 54.8871
" />
<path d="M67.9869 54.8871
L67.9264 55.0081
" />
<path d="M67.9264 55.0081
L67.8054 55.1291
" />
<path d="M67.8054 55.1291
L67.6240 55.1895
" />
<path d="M67.6240 55.1895
L67.3216 55.1895
" />
</g><path style="fill:none; 
stroke:#000000; stroke-width:0.1524; stroke-opacity:1; 
stroke-linecap:round; stroke-linejoin:round;fill:none"
d="M 69.8500,54.6100
69.2150,53.9750
68.5800,53.9750
68.5800,55.2450
69.2150,55.2450
Z" /> 
</g>
<g style="fill:none; 
stroke:#000000; stroke-width:0.1524; stroke-opacity:1; 
stroke-linecap:round; stroke-linejoin:round;">
<text x="129.0320" y="115.4470"
textLength="14.4753" font-size="1.6933" lengthAdjust="spacingAndGlyphs"
text-anchor="middle" opacity="0" stroke-opacity="0">tbd: log potis?</text>
<g class="stroked-text"><desc>tbd: log potis?</desc>
<path d="M122.0169 114.5449
L122.5007 114.5449
" />
<path d="M122.1983 114.1215
L122.1983 115.2101
" />
<path d="M122.1983 115.2101
L122.2588 115.3311
" />
<path d="M122.2588 115.3311
L122.3798 115.3915
" />
<path d="M122.3798 115.3915
L122.5007 115.3915
" />
<path d="M122.9240 115.3915
L122.9240 114.1215
" />
<path d="M122.9240 114.6053
L123.0450 114.5449
" />
<path d="M123.0450 114.5449
L123.2869 114.5449
" />
<path d="M123.2869 114.5449
L123.4078 114.6053
" />
<path d="M123.4078 114.6053
L123.4683 114.6658
" />
<path d="M123.4683 114.6658
L123.5288 114.7868
" />
<path d="M123.5288 114.7868
L123.5288 115.1496
" />
<path d="M123.5288 115.1496
L123.4683 115.2706
" />
<path d="M123.4683 115.2706
L123.4078 115.3311
" />
<path d="M123.4078 115.3311
L123.2869 115.3915
" />
<path d="M123.2869 115.3915
L123.0450 115.3915
" />
<path d="M123.0450 115.3915
L122.9240 115.3311
" />
<path d="M124.6173 115.3915
L124.6173 114.1215
" />
<path d="M124.6173 115.3311
L124.4964 115.3915
" />
<path d="M124.4964 115.3915
L124.2545 115.3915
" />
<path d="M124.2545 115.3915
L124.1335 115.3311
" />
<path d="M124.1335 115.3311
L124.0730 115.2706
" />
<path d="M124.0730 115.2706
L124.0126 115.1496
" />
<path d="M124.0126 115.1496
L124.0126 114.7868
" />
<path d="M124.0126 114.7868
L124.0730 114.6658
" />
<path d="M124.0730 114.6658
L124.1335 114.6053
" />
<path d="M124.1335 114.6053
L124.2545 114.5449
" />
<path d="M124.2545 114.5449
L124.4964 114.5449
" />
<path d="M124.4964 114.5449
L124.6173 114.6053
" />
<path d="M125.2220 115.2706
L125.2825 115.3311
" />
<path d="M125.2825 115.3311
L125.2220 115.3915
" />
<path d="M125.2220 115.3915
L125.1616 115.3311
" />
<path d="M125.1616 115.3311
L125.2220 115.2706
" />
<path d="M125.2220 115.2706
L125.2220 115.3915
" />
<path d="M125.2220 114.6053
L125.2825 114.6658
" />
<path d="M125.2825 114.6658
L125.2220 114.7263
" />
<path d="M125.2220 114.7263
L125.1616 114.6658
" />
<path d="M125.1616 114.6658
L125.2220 114.6053
" />
<path d="M125.2220 114.6053
L125.2220 114.7263
" />
<path d="M126.9759 115.3915
L126.8549 115.3311
" />
<path d="M126.8549 115.3311
L126.7944 115.2101
" />
<path d="M126.7944 115.2101
L126.7944 114.1215
" />
<path d="M127.6411 115.3915
L127.5201 115.3311
" />
<path d="M127.5201 115.3311
L127.4596 115.2706
" />
<path d="M127.4596 115.2706
L127.3992 115.1496
" />
<path d="M127.3992 115.1496
L127.3992 114.7868
" />
<path d="M127.3992 114.7868
L127.4596 114.6658
" />
<path d="M127.4596 114.6658
L127.5201 114.6053
" />
<path d="M127.5201 114.6053
L127.6411 114.5449
" />
<path d="M127.6411 114.5449
L127.8225 114.5449
" />
<path d="M127.8225 114.5449
L127.9434 114.6053
" />
<path d="M127.9434 114.6053
L128.0039 114.6658
" />
<path d="M128.0039 114.6658
L128.0644 114.7868
" />
<path d="M128.0644 114.7868
L128.0644 115.1496
" />
<path d="M128.0644 115.1496
L128.0039 115.2706
" />
<path d="M128.0039 115.2706
L127.9434 115.3311
" />
<path d="M127.9434 115.3311
L127.8225 115.3915
" />
<path d="M127.8225 115.3915
L127.6411 115.3915
" />
<path d="M129.1529 114.5449
L129.1529 115.5730
" />
<path d="M129.1529 115.5730
L129.0924 115.6939
" />
<path d="M129.0924 115.6939
L129.0320 115.7544
" />
<path d="M129.0320 115.7544
L128.9110 115.8149
" />
<path d="M128.9110 115.8149
L128.7296 115.8149
" />
<path d="M128.7296 115.8149
L128.6086 115.7544
" />
<path d="M129.1529 115.3311
L129.0320 115.3915
" />
<path d="M129.0320 115.3915
L128.7901 115.3915
" />
<path d="M128.7901 115.3915
L128.6691 115.3311
" />
<path d="M128.6691 115.3311
L128.6086 115.2706
" />
<path d="M128.6086 115.2706
L128.5482 115.1496
" />
<path d="M128.5482 115.1496
L128.5482 114.7868
" />
<path d="M128.5482 114.7868
L128.6086 114.6658
" />
<path d="M128.6086 114.6658
L128.6691 114.6053
" />
<path d="M128.6691 114.6053
L128.7901 114.5449
" />
<path d="M128.7901 114.5449
L129.0320 114.5449
" />
<path d="M129.0320 114.5449
L129.1529 114.6053
" />
<path d="M130.7252 114.5449
L130.7252 115.8149
" />
<path d="M130.7252 114.6053
L130.8462 114.5449
" />
<path d="M130.8462 114.5449
L131.0881 114.5449
" />
<path d="M131.0881 114.5449
L131.2090 114.6053
" />
<path d="M131.2090 114.6053
L131.2695 114.6658
" />
<path d="M131.2695 114.6658
L131.3300 114.7868
" />
<path d="M131.3300 114.7868
L131.3300 115.1496
" />
<path d="M131.3300 115.1496
L131.2695 115.2706
" />
<path d="M131.2695 115.2706
L131.2090 115.3311
" />
<path d="M131.2090 115.3311
L131.0881 115.3915
" />
<path d="M131.0881 115.3915
L130.8462 115.3915
" />
<path d="M130.8462 115.3915
L130.7252 115.3311
" />
<path d="M132.0557 115.3915
L131.9347 115.3311
" />
<path d="M131.9347 115.3311
L131.8742 115.2706
" />
<path d="M131.8742 115.2706
L131.8138 115.1496
" />
<path d="M131.8138 115.1496
L131.8138 114.7868
" />
<path d="M131.8138 114.7868
L131.8742 114.6658
" />
<path d="M131.8742 114.6658
L131.9347 114.6053
" />
<path d="M131.9347 114.6053
L132.0557 114.5449
" />
<path d="M132.0557 114.5449
L132.2371 114.5449
" />
<path d="M132.2371 114.5449
L132.3580 114.6053
" />
<path d="M132.3580 114.6053
L132.4185 114.6658
" />
<path d="M132.4185 114.6658
L132.4790 114.7868
" />
<path d="M132.4790 114.7868
L132.4790 115.1496
" />
<path d="M132.4790 115.1496
L132.4185 115.2706
" />
<path d="M132.4185 115.2706
L132.3580 115.3311
" />
<path d="M132.3580 115.3311
L132.2371 115.3915
" />
<path d="M132.2371 115.3915
L132.0557 115.3915
" />
<path d="M132.8418 114.5449
L133.3256 114.5449
" />
<path d="M133.0232 114.1215
L133.0232 115.2101
" />
<path d="M133.0232 115.2101
L133.0837 115.3311
" />
<path d="M133.0837 115.3311
L133.2047 115.3915
" />
<path d="M133.2047 115.3915
L133.3256 115.3915
" />
<path d="M133.7489 115.3915
L133.7489 114.5449
" />
<path d="M133.7489 114.1215
L133.6885 114.1820
" />
<path d="M133.6885 114.1820
L133.7489 114.2425
" />
<path d="M133.7489 114.2425
L133.8094 114.1820
" />
<path d="M133.8094 114.1820
L133.7489 114.1215
" />
<path d="M133.7489 114.1215
L133.7489 114.2425
" />
<path d="M134.2933 115.3311
L134.4142 115.3915
" />
<path d="M134.4142 115.3915
L134.6561 115.3915
" />
<path d="M134.6561 115.3915
L134.7771 115.3311
" />
<path d="M134.7771 115.3311
L134.8375 115.2101
" />
<path d="M134.8375 115.2101
L134.8375 115.1496
" />
<path d="M134.8375 115.1496
L134.7771 115.0287
" />
<path d="M134.7771 115.0287
L134.6561 114.9682
" />
<path d="M134.6561 114.9682
L134.4747 114.9682
" />
<path d="M134.4747 114.9682
L134.3537 114.9077
" />
<path d="M134.3537 114.9077
L134.2933 114.7868
" />
<path d="M134.2933 114.7868
L134.2933 114.7263
" />
<path d="M134.2933 114.7263
L134.3537 114.6053
" />
<path d="M134.3537 114.6053
L134.4747 114.5449
" />
<path d="M134.4747 114.5449
L134.6561 114.5449
" />
<path d="M134.6561 114.5449
L134.7771 114.6053
" />
<path d="M135.5633 115.2706
L135.6237 115.3311
" />
<path d="M135.6237 115.3311
L135.5633 115.3915
" />
<path d="M135.5633 115.3915
L135.5028 115.3311
" />
<path d="M135.5028 115.3311
L135.5633 115.2706
" />
<path d="M135.5633 115.2706
L135.5633 115.3915
" />
<path d="M135.3214 114.1820
L135.4423 114.1215
" />
<path d="M135.4423 114.1215
L135.7447 114.1215
" />
<path d="M135.7447 114.1215
L135.8656 114.1820
" />
<path d="M135.8656 114.1820
L135.9261 114.3030
" />
<path d="M135.9261 114.3030
L135.9261 114.4239
" />
<path d="M135.9261 114.4239
L135.8656 114.5449
" />
<path d="M135.8656 114.5449
L135.8052 114.6053
" />
<path d="M135.8052 114.6053
L135.6842 114.6658
" />
<path d="M135.6842 114.6658
L135.6237 114.7263
" />
<path d="M135.6237 114.7263
L135.5633 114.8472
" />
<path d="M135.5633 114.8472
L135.5633 114.9077
" />
</g><path d="M140.9700 83.8200
L153.6700 83.8200
" />
<path d="M140.9700 74.9300
L140.9700 83.8200
" />
<path d="M140.9700 93.9800
L140.9700 86.3600
" />
<path d="M107.9500 78.7400
L115.5700 78.7400
" />
<path d="M140.9700 86.3600
L153.6700 86.3600
" />
<path d="M96.5200 97.7900
L102.8700 97.7900
" />
<path d="M107.9500 97.7900
L115.5700 97.7900
" />
<path d="M119.3800 93.9800
L140.9700 93.9800
" />
<path d="M119.3800 74.9300
L140.9700 74.9300
" />
<path d="M96.5200 78.7400
L102.8700 78.7400
" />
</g> 
</svg>
